<?xml version="1.0" standalone="no"?>
<!DOCTYPE svg PUBLIC "-//W3C//DTD SVG 1.1//EN" "http://www.w3.org/Graphics/SVG/1.1/DTD/svg11.dtd" >
<svg xmlns="http://www.w3.org/2000/svg" xmlns:xlink="http://www.w3.org/1999/xlink" version="1.1">
<metadata></metadata>
<defs>
<font id="rudablack" horiz-adv-x="1294" >
<font-face units-per-em="2048" ascent="1638" descent="-410" />
<missing-glyph horiz-adv-x="491" />
<glyph horiz-adv-x="0" />
<glyph unicode="&#xd;" horiz-adv-x="681" />
<glyph horiz-adv-x="0" />
<glyph unicode=" "  horiz-adv-x="491" />
<glyph unicode="&#x09;" horiz-adv-x="491" />
<glyph unicode="&#xa0;" horiz-adv-x="491" />
<glyph unicode="!" horiz-adv-x="600" d="M123 0v274h358v-274h-358zM129 1440h344l-37 -1024h-274z" />
<glyph unicode="&#x22;" horiz-adv-x="837" d="M70 1393v104h256v-104l-39 -475h-183zM512 1393v104h256v-104l-39 -475h-182z" />
<glyph unicode="#" horiz-adv-x="1212" d="M6 336v270h203l33 213h-164v271h205l53 333h266l-53 -333h205l53 333h266l-53 -333h162v-271h-203l-35 -213h166v-270h-209l-51 -336h-264l51 336h-207l-51 -336h-264l51 336h-160zM473 606h207l33 213h-205z" />
<glyph unicode="$" horiz-adv-x="1114" d="M29 100q4 16 12 43q14 37 68 213q252 -100 462 -100q59 0 102.5 26.5t43.5 110.5t-60.5 129t-172 90t-170 76t-124.5 82q-131 106 -131 293q0 145 91.5 250.5t263.5 138.5v193h254v-185q150 -12 325 -61l-51 -262q-246 47 -412 47q-68 0 -104.5 -25.5t-36.5 -82t36 -92.5 t77 -55.5t134 -58.5t148.5 -67.5t124.5 -81.5q135 -106 135 -288.5t-102 -296t-274 -148.5v-226h-254v220q-94 12 -190.5 41.5t-194.5 76.5z" />
<glyph unicode="%" horiz-adv-x="1685" d="M63 1148q0 177 100.5 262t247 85t248 -85t101.5 -262t-101.5 -263t-247 -86t-247 86t-101.5 263zM291 -18l465 849l321 670h281l-420 -799l-365 -720h-282zM305 1146.5q0 -110.5 106.5 -110.5t106.5 110.5t-106.5 110.5t-106.5 -110.5zM926 322.5q0 177.5 100 262.5 t246.5 85t248 -85t101.5 -262.5t-101.5 -263.5t-247 -86t-246.5 86t-101 263.5zM1167 321.5q0 -110.5 106.5 -110.5t106.5 110.5t-106.5 110.5t-106.5 -110.5z" />
<glyph unicode="&#x26;" horiz-adv-x="1437" d="M35 412q0 248 262 381q-158 127 -158 293.5t121 273t338 106.5t329.5 -107.5t112.5 -258.5q0 -193 -198 -322q98 -70 198 -170q55 98 107 228l272 -76q-74 -186 -194 -367q123 -180 202 -409l-315 -11q-24 72 -90 187q-209 -186 -456 -186.5t-389 133t-142 305.5z M365 402.5q0 -80.5 53 -133t139 -52.5t171 46t151 120q-141 166 -301 262q-96 -37 -154.5 -99.5t-58.5 -143zM461 1102q0 -117 127 -182q129 66 129 184q0 55 -31.5 91t-97.5 36q-127 0 -127 -129z" />
<glyph unicode="'" horiz-adv-x="436" d="M90 1401v104h256v-104l-39 -475h-182z" />
<glyph unicode="(" horiz-adv-x="714" d="M96 705q0 705 465 960l135 -180q-135 -92 -205.5 -295t-70.5 -484.5t69.5 -482t206.5 -297.5l-135 -180q-203 111 -334 345.5t-131 613.5z" />
<glyph unicode=")" horiz-adv-x="714" d="M18 -74q137 96 207 297t70 482.5t-70.5 484.5t-206.5 295l136 180q464 -255 464 -960q0 -379 -131 -613.5t-333 -345.5z" />
<glyph unicode="*" horiz-adv-x="851" d="M29 1104l73 244l45 -15l191 -96l-39 205v43h254v-43l-39 -205l191 96l43 13l75 -242l-43 -12l-227 -27l184 -158l31 -30l-195 -166l-26 34l-123 209l-127 -211l-27 -34l-186 165l29 31l178 160l-221 27z" />
<glyph unicode="+" horiz-adv-x="1290" d="M61 465v270h445v449h274v-449h449v-270h-449v-457h-274v457h-445z" />
<glyph unicode="," horiz-adv-x="612" d="M90 -268q66 96 66 266v272h307v-186q0 -305 -189 -442z" />
<glyph unicode="-" horiz-adv-x="626" d="M49 535v270h529v-270h-529z" />
<glyph unicode="." horiz-adv-x="579" d="M111 0v281h358v-281h-358z" />
<glyph unicode="/" horiz-adv-x="1003" d="M-37 -201l412 883l330 758h299l-402 -865l-342 -776h-297z" />
<glyph unicode="0" horiz-adv-x="1257" d="M78 721q0 219 41 369.5t119.5 230.5t172 112.5t205 32.5t190.5 -19.5t150.5 -69.5t120.5 -132q102 -176 103 -524q0 -502 -224 -660q-71 -49 -150 -68.5t-190.5 -19.5t-205 33t-172 113t-119.5 231.5t-41 370.5zM406 680.5q0 -234.5 53 -336.5t172 -102t171 100t52 379.5 t-54.5 378t-170.5 98.5q-78 0 -123 -35t-72.5 -141.5t-27.5 -341z" />
<glyph unicode="1" horiz-adv-x="1134" d="M43 1067l457 389l305 -20v-1166l311 4v-274h-987v274l354 -2l13 824h-13l-237 -240z" />
<glyph unicode="2" horiz-adv-x="1200" d="M59 1260q88 72 239.5 139t303.5 67q213 0 347 -102t134 -281q0 -119 -72.5 -239.5t-174.5 -241.5q-174 -209 -293 -328v-12l571 12v-274h-1032v231q152 147 346.5 364.5t264 319t69.5 179.5q0 90 -123 90q-84 0 -211 -46t-242 -116z" />
<glyph unicode="3" horiz-adv-x="1118" d="M-12 119l96 229q289 -96 465 -96q86 0 119.5 37t33.5 137t-51 148.5t-164 48.5h-270v266q299 20 365 45q80 41 82 122t-28 107.5t-154 26.5t-382 -31l-37 256q188 51 404 51q524 0 524 -389q0 -203 -153 -295v-12q199 -94 198 -344q0 -201 -125 -327t-391 -126 q-125 0 -258 36t-205 73z" />
<glyph unicode="4" horiz-adv-x="1183" d="M14 287v205l353 976l305 -38l-320 -879v-12l328 12l70 508h243v-500l135 4v-276h-135l2 -287h-317v287h-664z" />
<glyph unicode="5" horiz-adv-x="1130" d="M10 135l94 234q295 -117 469 -117q72 0 114 30.5t42 155.5t-45 160q-59 49 -328 49l-241 -4l125 797h755v-266l-489 8l-41 -273q444 -27 551 -243q43 -88 43 -213q0 -225 -137.5 -352.5t-376.5 -127.5q-129 0 -262 40t-203 81z" />
<glyph unicode="6" horiz-adv-x="1212" d="M78 686q0 455 184 629q90 82 194.5 116.5t215.5 34.5q203 0 350 -53l51 -18l-69 -250q-213 47 -334 47t-168 -41q-66 -53 -86 -242q96 6 149 6q276 0 423 -105t147 -343t-137.5 -366t-391.5 -128t-391 166t-137 547zM408 530q-1 -204 65 -251q45 -37 154.5 -37t150.5 47 t41 161.5t-43 155.5t-168 41l-200 -14v-103z" />
<glyph unicode="7" horiz-adv-x="1046" d="M4 1167v273h1040v-187l-618 -1271l-336 26l606 1163v13z" />
<glyph unicode="8" horiz-adv-x="1189" d="M51 418q0 109 59.5 199t149.5 147q-150 111 -149.5 300t126 295.5t358 106.5t357.5 -108.5t125 -280.5q0 -207 -182 -332q98 -45 170 -134t72 -210q0 -176 -149.5 -302t-400.5 -126t-393.5 132.5t-142.5 312.5zM375 418q0 -174 219 -174.5t219 155.5q0 80 -59.5 129.5 t-216.5 96.5q-80 -29 -121 -76t-41 -131zM424 1077q0 -72 45 -121t152 -90q141 60 141 191q0 158 -169 157.5t-169 -137.5z" />
<glyph unicode="9" horiz-adv-x="1208" d="M78 981q0 229 135 357t387 128t391 -166.5t139 -554t-130 -580t-422 -192.5q-98 0 -216 34t-186 67l-67 32l88 240q246 -98 367.5 -98t158.5 31q61 51 74 266q-119 -17 -211 -17q-238 0 -373 112t-135 341zM395 991.5q0 -106.5 34 -149.5t149 -43q82 0 221 28 q-2 297 -74 344q-41 27 -148.5 27t-144.5 -50t-37 -156.5z" />
<glyph unicode=":" horiz-adv-x="690" d="M166 0v281h358v-281h-358zM166 852v281h358v-281h-358z" />
<glyph unicode=";" horiz-adv-x="702" d="M150 -268q65 96 65 266v272h307v-186q0 -305 -188 -442zM193 870v281h358v-281h-358z" />
<glyph unicode="&#x3c;" horiz-adv-x="1372" d="M109 498v217l1194 489v-299l-750 -293v-12l750 -293v-299z" />
<glyph unicode="=" horiz-adv-x="1329" d="M61 162v272h1207v-272h-1207zM61 760v272h1207v-272h-1207z" />
<glyph unicode="&#x3e;" horiz-adv-x="1372" d="M109 8v299l749 293v12l-749 293v299l1194 -489v-217z" />
<glyph unicode="?" horiz-adv-x="1009" d="M18 1339q84 49 225.5 88t254.5 39q219 0 357 -113.5t138 -289.5q0 -152 -92 -248q-82 -84 -163 -137t-107.5 -75.5t-55 -72t-34.5 -114.5h-293v39q0 158 84 250q45 49 76.5 74.5t93.5 68.5q164 111 164 215q0 63 -39 92t-115 29q-133 0 -330 -66l-65 -20zM217 0v274h358 v-274h-358z" />
<glyph unicode="@" horiz-adv-x="1669" d="M90 653.5q0 190.5 67.5 345t178.5 246.5q227 190 521 190.5t504 -178t210 -479.5q0 -229 -131 -394t-283 -165q-82 0 -121 47t-53 140h-8q-106 -186 -246 -187q-92 0 -168 88q-88 109 -88 364t85 353t267 98q129 0 342 -57q-4 -301 -4 -450.5t3 -179t20 -29.5 q55 0 126.5 106t71.5 258q0 223 -139 352t-391 129t-412.5 -151.5t-160.5 -435t160.5 -446.5t394.5 -163q53 0 194 27l23 -172q-102 -35 -233.5 -35t-261.5 49t-235.5 142.5t-169 245t-63.5 342zM696 682q1 -254 54 -254q72 0 138 158.5t66 322.5q-63 12 -132.5 12.5 t-90.5 -26.5q-35 -47 -35 -213z" />
<glyph unicode="A" horiz-adv-x="1173" d="M-23 0l412 1440h385l412 -1440h-326l-82 319h-393l-82 -319h-326zM446 590h271l-129 555h-13z" />
<glyph unicode="B" horiz-adv-x="1341" d="M170 12l10 662l-10 764q313 28 520 28q487 0 488 -407q0 -113 -49.5 -186.5t-118.5 -108.5v-12q204 -86 204 -308q0 -270 -161 -378q-141 -92 -348 -92q-3 0 -5 -1q-206 0 -530 39zM492 872h206q86 0 119 39t33 133.5t-38 132t-128 37.5l-192 -8v-334zM494 623l2 -379 q123 -12 219 -13h2q94 -1 129 47t35 155.5t-50.5 148.5t-148.5 41h-188z" />
<glyph unicode="C" horiz-adv-x="1265" d="M102 707q0 360 115 538q53 84 134 134.5t168 68.5t183.5 18t226.5 -15t208 -36l-35 -262q-254 31 -389 31t-183 -37q-92 -74 -92 -447q0 -170 30 -278.5t74 -141t131 -32.5t191.5 27.5t237.5 80.5l92 -241q-25 -16 -70 -40t-178 -63t-262 -39q-274 0 -428 176.5 t-154 557.5z" />
<glyph unicode="D" horiz-adv-x="1378" d="M170 0v1438q342 29 497 29q3 -1 5 -1q154 0 262 -40t171.5 -104.5t102.5 -162.5q68 -164 68 -422q0 -408 -162 -586t-455 -178q-139 0 -489 27zM489 260q86 -10 197 -10t154 39q94 78 94 440.5t-88 427.5q-45 35 -158 35l-199 -12v-920z" />
<glyph unicode="E" horiz-adv-x="1128" d="M170 0v1440h864v-275l-545 6l-8 -307h502v-270h-502l8 -324l545 4v-274h-864z" />
<glyph unicode="F" horiz-adv-x="1099" d="M170 0v1440h864v-279l-547 6l-6 -309h488v-270h-488l11 -588h-322z" />
<glyph unicode="G" horiz-adv-x="1339" d="M102 725q0 446 181 602q92 80 201.5 109.5t300 29.5t407.5 -53l-37 -260q-276 31 -431 31t-200 -39q-86 -78 -86 -421t90 -433q53 -49 174 -49t179 12v309l-209 15v231h522v-741q-88 -37 -224 -66t-249 -29t-198 17.5t-166 68t-136 129.5q-119 180 -119 537z" />
<glyph unicode="H" horiz-adv-x="1445" d="M170 0v1440h322l-7 -572h476l-7 572h322v-1440h-322l7 594h-476l7 -594h-322z" />
<glyph unicode="I" horiz-adv-x="663" d="M170 0l8 664l-8 776h324l-7 -641l7 -799h-324z" />
<glyph unicode="J" horiz-adv-x="743" d="M-43 -4l31 272q102 -20 154.5 -20t70.5 14q39 33 39 240v938h321v-934q0 -532 -419 -533q-92 0 -197 23z" />
<glyph unicode="K" horiz-adv-x="1359" d="M170 0l6 733l-6 707h324v-1440h-324zM498 756l463 684h391l-516 -674v-12l575 -754h-399z" />
<glyph unicode="L" horiz-adv-x="989" d="M170 0v1440h322l-11 -1164l531 5v-281h-842z" />
<glyph unicode="M" horiz-adv-x="1726" d="M162 0l49 1440h412l233 -805h12l232 805h409l56 -1440h-320l8 1079h-12l-215 -747h-324l-221 747h-12l12 -1079h-319z" />
<glyph unicode="N" horiz-adv-x="1466" d="M170 0v1440h401l445 -1022h12l-24 1022h296v-1440h-401l-444 1022h-13l25 -1022h-297z" />
<glyph unicode="O" horiz-adv-x="1433" d="M102 723q0 496 254 655q137 88 361 88q350 0 495 -221q119 -180 119 -522q0 -440 -184 -604q-88 -80 -191.5 -113t-238.5 -33t-238.5 33t-191.5 113q-184 164 -185 604zM436 719.5q0 -195.5 32 -298t88 -134t160.5 -31.5t160.5 33q120 69 120 424v6q0 365 -116 432 q-57 33 -164 33t-163 -33t-87 -134.5t-31 -297z" />
<glyph unicode="P" horiz-adv-x="1271" d="M170 0l8 672l-8 766q324 29 549 29q4 -1 8 -1q227 0 348 -128t121 -377q0 -303 -162 -424q-139 -102 -350 -103l-192 6v-440h-322zM492 719q86 -14 190 -14t143 35.5t39 216t-45 221.5q-29 29 -131 29q-2 -1 -4 -1q-106 0 -192 -10v-477z" />
<glyph unicode="Q" horiz-adv-x="1480" d="M102 723q0 219 47.5 370.5t136.5 230.5t192.5 110.5t239.5 31.5t239.5 -32.5t191.5 -110.5q182 -164 182 -602q0 -379 -176 -582v-12l270 -64l-86 -258l-467 183q-78 -14 -190 -14q-1 -1 -3 -1q-109 0 -209 34q-101 34 -187 114t-133.5 231.5t-47.5 370.5zM436 719.5 q0 -195.5 32 -298t88 -134t160.5 -31.5t160.5 31q120 67 120 426v6q0 362 -116 432q-55 33 -163 33t-164 -33t-87 -134.5t-31 -297z" />
<glyph unicode="R" horiz-adv-x="1423" d="M170 0l8 668l-8 770q471 28 541 28h4q540 0 540 -479q0 -326 -292 -430v-12l350 -545h-373l-264 512l-184 4v-516h-322zM492 782q139 -14 244.5 -14t146.5 50t41 192.5t-52 175.5q-36 25 -158 25q-2 -1 -4 -1q-126 0 -218 -12v-416z" />
<glyph unicode="S" horiz-adv-x="1167" d="M68 100q4 16 14 43q12 37 65 213q252 -100 463 -100q59 0 102.5 26.5t43.5 123.5q0 45 -24.5 68.5t-41 36.5t-47.5 29.5t-53 26.5q-47 23 -171 81.5t-179 103.5q-142 111 -142 300q0 186 132 300t376 114q88 0 194.5 -16t231.5 -51l-51 -262q-246 47 -412 47 q-68 0 -104.5 -25.5t-36.5 -87t52 -101.5t115.5 -70t114 -51.5t77 -34.5t72.5 -37.5t71.5 -46t59.5 -55.5t50 -69q43 -88 43 -188q0 -199 -142 -322t-372 -123q-117 0 -241.5 32t-192.5 65z" />
<glyph unicode="T" horiz-adv-x="1056" d="M-33 1161v279h1120v-279l-409 6l6 -1167h-322l7 1167z" />
<glyph unicode="U" horiz-adv-x="1437" d="M170 633v807h322v-754q0 -193 22 -285q21 -93 66 -121q43 -28 134 -27h6q95 1 139 28.5t65.5 117.5t21.5 287v754h322v-791q0 -381 -134.5 -528.5t-414 -147.5t-414.5 145.5t-135 514.5z" />
<glyph unicode="V" horiz-adv-x="1247" d="M12 1440h338l256 -1139h12l256 1139h340l-407 -1440h-393z" />
<glyph unicode="W" horiz-adv-x="1679" d="M33 1440h319l109 -1106h12l160 764h377l159 -764h13l108 1106h320l-213 -1440h-402l-168 809h-12l-168 -809h-401z" />
<glyph unicode="X" horiz-adv-x="1269" d="M-14 0l440 731l-422 709h361l264 -510h12l260 510h361l-420 -709l440 -731h-367l-272 522h-12l-279 -522h-366z" />
<glyph unicode="Y" horiz-adv-x="1187" d="M-8 1440h342l252 -660h12l252 660h342l-442 -922l4 -518h-326l6 518z" />
<glyph unicode="Z" horiz-adv-x="1185" d="M49 0v254l692 915v15l-649 -19v275h1030v-248l-678 -922v-12l689 14v-272h-1084z" />
<glyph unicode="[" horiz-adv-x="700" d="M172 -254v1874h490v-236l-195 5v-1412l195 3v-234h-490z" />
<glyph unicode="\" horiz-adv-x="1007" d="M0 1440h299l330 -758l411 -883h-297l-342 776z" />
<glyph unicode="]" horiz-adv-x="700" d="M39 -20l194 -3v1412l-194 -5v236h489v-1874h-489v234z" />
<glyph unicode="^" horiz-adv-x="1077" d="M74 664l313 782h303l314 -782l-297 -25l-162 543h-13l-161 -543z" />
<glyph unicode="_" horiz-adv-x="1167" d="M8 -139h1151v-201h-1151v201z" />
<glyph unicode="`" horiz-adv-x="1280" d="M303 1442l53 221l611 -170l-39 -170z" />
<glyph unicode="a" horiz-adv-x="1273" d="M104 381q0 199 140.5 289t408.5 90h154q0 137 -26.5 177t-120 40t-207 -20.5t-252.5 -61.5l-66 229q84 39 240.5 73t279.5 34q252 0 360.5 -116t108.5 -337v-778h-200l-41 133h-13q-25 -18 -64.5 -45t-150 -71t-200.5 -44q-152 0 -251.5 104.5t-99.5 303.5zM428 387 q0 -86 27.5 -120t85.5 -34q106 0 225 58l41 20v213q-71 10 -191 10q-2 0 -4 1q-116 0 -150 -31t-34 -117z" />
<glyph unicode="b" horiz-adv-x="1277" d="M152 63v1496h317v-359q150 31 264 31q446 0 447 -613q0 -188 -42 -320t-114 -200q-135 -125 -332 -125q-104 0 -263 27t-277 63zM469 250q105 -20 193 -20q2 0 4 -1q85 0 114 25q72 59 72 399q0 244 -47 289q-29 29 -98 29q-127 0 -238 -27v-694z" />
<glyph unicode="c" horiz-adv-x="1112" d="M98 606q0 360 181 500q160 125 417 125q176 0 346 -45l-34 -240q-213 33 -337 33t-169 -45q-76 -80 -76 -341t98 -337q41 -31 103 -31q115 0 299 74l61 25l86 -226q-18 -14 -53 -34.5t-147.5 -55.5t-229.5 -35q-252 0 -398.5 155t-146.5 478z" />
<glyph unicode="d" horiz-adv-x="1286" d="M98 594q0 186 44 317t120 199q135 121 322 121q106 0 233 -31v359h318v-1559h-205l-33 117h-12q-213 -143 -384 -143q-1 0 -1 -1q-170 0 -286 156t-116 465zM426 596q0 -283 57 -330q30 -24 74 -25q2 0 4 1q96 0 256 67v623q-117 43 -209 43t-123 -33q-59 -63 -59 -346z " />
<glyph unicode="e" horiz-adv-x="1236" d="M98 602q0 629 553 629q248 0 373 -132t125 -437v-170h-721q0 -172 64 -228q43 -39 120 -39q143 0 365 66l72 22l77 -229q-92 -43 -229.5 -77t-241.5 -34q-557 0 -557 629zM430 721l395 8q-4 162 -37 207q-37 45 -147.5 45t-157.5 -53.5t-53 -206.5z" />
<glyph unicode="f" horiz-adv-x="782" d="M57 907v199l142 29q18 250 131.5 350t310.5 100l186 -8l-22 -252q-96 8 -168 8t-96.5 -32.5t-26.5 -155.5h270v-244h-270v-901h-317v907h-140z" />
<glyph unicode="g" horiz-adv-x="1157" d="M51 791q0 119 45 206.5t125 137.5q156 96 393 96l521 -25v-184l-127 -21q51 -110 51 -229q0 -178 -140.5 -296t-383.5 -120q-4 -37 -4.5 -43t20 -14t82.5 -29q291 -102 376 -177t85 -165q0 -141 -145.5 -218t-381.5 -77q-113 0 -235.5 17.5t-255.5 52.5l35 242 q381 -59 535 -59q3 -1 5 -1q150 0 150 33q0 23 -350 145q-154 55 -169.5 67.5t-15.5 29.5q0 33 80 229q-295 102 -295 402zM348 802q0 -128 44 -171t171 -43t169 45t42 186.5t-22.5 164t-165 22.5t-190.5 -38t-48 -166z" />
<glyph unicode="h" horiz-adv-x="1284" d="M152 0v1559h317v-431q213 106 379 106q1 0 1 1q165 0 233 -118t67 -329v-788h-318v733q0 152 -28.5 188.5t-73.5 36.5q-80 0 -260 -73v-885h-317z" />
<glyph unicode="i" horiz-adv-x="661" d="M152 1346v213h358v-213h-358zM172 0v1204h317v-1204h-317z" />
<glyph unicode="j" horiz-adv-x="708" d="M-78 -346l33 258q111 -16 172 -16t76.5 42t15.5 205v1061h318v-1063q0 -266 -112 -387t-284 -121q-76 0 -219 21zM199 1346v213h358v-213h-358z" />
<glyph unicode="k" horiz-adv-x="1228" d="M152 0l8 657l-8 902h317v-906l391 551h383l-455 -551v-10l504 -643h-389l-434 631v-631h-317z" />
<glyph unicode="l" horiz-adv-x="620" d="M152 0v1559h317v-1559h-317z" />
<glyph unicode="m" horiz-adv-x="1957" d="M162 0v1204h203l36 -121h13q76 45 118.5 69t131 53.5t165.5 29.5q186 0 265 -156q74 47 121 74t128.5 54.5t157.5 27.5q176 0 249 -118t73 -329v-788h-322v733q0 158 -27.5 191.5t-87.5 33.5q-113 0 -241 -88q4 -66 4 -102v-768h-318v733q0 160 -26.5 192.5t-81.5 32.5 t-125 -25.5t-119 -60.5v-872h-317z" />
<glyph unicode="n" d="M162 0v1204h203l36 -121h13q250 147 432 147q1 0 2 1q182 0 246 -115q66 -115 65 -328v-788h-317v729q0 160 -27 192.5t-84 32.5q-127 0 -252 -86v-868h-317z" />
<glyph unicode="o" horiz-adv-x="1253" d="M98 602q0 307 122 468t408.5 161t406.5 -160t120 -469t-120 -469t-406.5 -160t-408.5 161t-122 468zM422 602.5q0 -231.5 43 -309.5t163 -78t161.5 77t41.5 310.5t-41.5 310t-161.5 76.5t-163 -77.5t-43 -309z" />
<glyph unicode="p" horiz-adv-x="1290" d="M152 -340v1544h202l37 -123h10q213 150 390.5 150t289 -150.5t111.5 -457.5q0 -428 -225 -574q-121 -76 -281 -76q-96 0 -217 19v-332h-317zM469 260q98 -29 192.5 -29t126.5 27q74 47 74 373q0 230 -39 287q-26 38 -79 38h-3q-109 0 -231 -59l-41 -18v-619z" />
<glyph unicode="q" horiz-adv-x="1277" d="M98 642q0 311 126 450t384 139q199 0 441 -57l77 -19v-1495h-317v358q-111 -45 -213 -45t-165.5 16.5t-126 62.5t-107.5 116q-99 161 -99 474zM426 605q0 -288 55 -341q26 -26 89 -26h5q111 0 234 30v682q-113 25 -207 25t-127 -33q-49 -49 -49 -337z" />
<glyph unicode="r" horiz-adv-x="880" d="M162 0v1204h196l41 -127h13q20 16 54 42t121 69t163.5 43t121.5 -23l-24 -274q-57 6 -113 6q-137 0 -256 -74v-866h-317z" />
<glyph unicode="s" horiz-adv-x="1099" d="M86 92l78 250q260 -111 426 -111q63 0 94 22.5t31 82.5q0 37 -12.5 53.5t-20.5 25.5t-24.5 18t-28 14.5t-34 13.5t-34.5 12t-40.5 12.5t-64.5 19.5t-54.5 17t-73 26.5t-76 36t-59 45t-54.5 62.5q-43 90 -43 180q0 168 113 263.5t337 95.5t433 -70l-47 -246 q-236 62 -402 62q-78 0 -101 -19.5t-23 -58.5t34.5 -68.5t69.5 -43t81 -26.5t137 -40t144 -55q158 -88 158 -282t-118.5 -302.5t-333.5 -108.5q-113 0 -236 30t-190 58z" />
<glyph unicode="t" horiz-adv-x="819" d="M47 907v199l154 29l47 284h260v-274h246v-244h-250v-506q0 -98 18.5 -124.5t69.5 -26.5l158 10v-258q-100 -23 -222 -23q-178 0 -260 89.5t-82 340.5v504h-139z" />
<glyph unicode="u" d="M135 420v784h318v-753q0 -152 26.5 -176.5t85.5 -24.5q125 0 250 86v868h318v-1204h-203l-39 125h-12q-74 -45 -123 -70.5t-131 -53.5t-154 -28q-190 0 -263 117t-73 330z" />
<glyph unicode="v" horiz-adv-x="1112" d="M18 1204h330l203 -934h12l203 934h330l-351 -1204h-376z" />
<glyph unicode="w" horiz-adv-x="1646" d="M41 1204h319l125 -971h13l141 805h381l143 -805h13l120 971h320l-238 -1204h-401l-141 809h-13l-141 -809h-401z" />
<glyph unicode="x" horiz-adv-x="1191" d="M8 0l391 633l-372 571h348l207 -395h12l207 395h348l-373 -571l391 -633h-356l-217 444h-12l-217 -444h-357z" />
<glyph unicode="y" horiz-adv-x="1105" d="M-8 1204h352l211 -805h12l215 805h326l-424 -1141l-115 -403h-329l178 444z" />
<glyph unicode="z" horiz-adv-x="1036" d="M23 0v213l573 741v11l-545 -17v256h930v-213l-567 -743v-12l581 20v-256h-972z" />
<glyph unicode="{" horiz-adv-x="950" d="M70 596v211q158 20 207 55t49 139v193q0 426 409 426q104 0 191 -12l-17 -226q-139 10 -182 10.5t-63.5 -36.5t-20.5 -166v-191q0 -219 -176 -292v-13q176 -80 176 -299v-207q0 -135 18.5 -174t69.5 -39l178 9l17 -228q-78 -8 -185 -8q-416 0 -415 440v213 q0 106 -47.5 139t-208.5 56z" />
<glyph unicode="|" horiz-adv-x="573" d="M166 -193v1778h242v-1778h-242z" />
<glyph unicode="}" horiz-adv-x="950" d="M25 -244l16 228q117 -8 173 -8.5t74.5 38.5t18.5 174v207q0 219 176 299v13q-176 74 -176 292v191q0 129 -20.5 166t-75.5 37l-170 -11l-16 226q72 12 190 12q410 0 410 -426v-193q0 -104 49 -139t207 -55v-211q-162 -23 -209 -56t-47 -139v-213q0 -440 -416 -440z" />
<glyph unicode="~" horiz-adv-x="1376" d="M147 649q37 39 60.5 60.5t83 49t133.5 27.5t273.5 -70.5t266 -70.5t169.5 53l94 -170q-115 -139 -271 -139q-84 0 -281.5 70.5t-266 70.5t-164.5 -51z" />
<glyph unicode="&#xa1;" horiz-adv-x="595" d="M119 930v274h358v-274h-358zM129 -233l33 1021h276l35 -1021h-344z" />
<glyph unicode="&#xa2;" horiz-adv-x="1112" d="M98 597q0 533 416 617v205h254v-190q129 -6 274 -43l-34 -240q-213 33 -336 33t-170 -43q-76 -70 -76 -337t98 -343q41 -31 103 -31q115 0 299 74l61 25l86 -226q-123 -88 -305 -114v-222h-254v224q-416 78 -416 611z" />
<glyph unicode="&#xa3;" horiz-adv-x="1226" d="M102 0v270h189v396h-189v237h191q20 319 178 449q139 115 363 114q147 0 327 -47l-33 -254q-205 29 -313 29t-139 -27q-55 -47 -64 -264h381v-237h-385v-396l520 4v-274h-1026z" />
<glyph unicode="&#xa4;" horiz-adv-x="1337" d="M109 313l124 125q-74 123 -73.5 277.5t73.5 277.5l-124 127l163 162l127 -127q129 76 272.5 76t276.5 -78l129 129l162 -164l-125 -125q76 -121 76 -276.5t-74 -278.5l125 -125l-164 -161l-125 124q-133 -76 -277.5 -75.5t-277.5 75.5l-127 -126zM408 716 q0 -138 72.5 -207t202.5 -69t193.5 65.5t63.5 207t-71.5 210t-193.5 68.5t-194.5 -68.5t-72.5 -206.5z" />
<glyph unicode="&#xa5;" horiz-adv-x="1218" d="M6 1440h342l252 -654h12l252 654h342l-313 -654h221v-200h-1020v200h225zM94 264v201h1020v-201h-348l2 -264h-326l2 264h-350z" />
<glyph unicode="&#xa6;" horiz-adv-x="573" d="M166 -193v744h242v-744h-242zM166 825v760h242v-760h-242z" />
<glyph unicode="&#xa7;" horiz-adv-x="1196" d="M66 -66l88 261q281 -117 452 -117q66 0 82 10q41 27 41 76q0 31 -16.5 47t-26.5 25.5t-31.5 18.5t-36 16.5t-43 16.5t-45.5 15q-74 23 -126 38t-103 35.5t-108 57.5q-113 78 -113 235.5t129 250.5q-86 80 -86 202q0 158 135 250t345 92t380 -61l-55 -262q-201 57 -322 57 t-147.5 -17.5t-26.5 -51t9.5 -50t31 -31t43 -25.5t58 -22.5t65.5 -17.5q104 -29 145 -41q152 -43 238 -110.5t86 -205t-129 -227.5q59 -76 59 -186.5t-43 -188t-114 -122.5q-141 -92 -332 -92q-109 0 -229.5 30.5t-188.5 61.5zM387 693q0 -34 33 -54.5t104.5 -43t137 -41 t102.5 -30.5q29 29 29 68t-36 61.5t-150.5 63.5t-182.5 61q-37 -51 -37 -85z" />
<glyph unicode="&#xa8;" horiz-adv-x="1265" d="M231 1368v221h301v-221h-301zM733 1368v221h301v-221h-301z" />
<glyph unicode="&#xa9;" horiz-adv-x="1703" d="M102 653.5q0 327.5 216.5 542.5t538 215t533.5 -213t212 -542.5t-212 -542.5t-540 -213t-538 213t-210 540.5zM291 653.5q0 -264.5 148.5 -417t411.5 -152.5t412.5 153.5t149.5 418t-149.5 418t-407.5 153.5t-411.5 -154.5t-153.5 -419zM465 653q0 270 129 367 q61 47 133 65.5t142.5 18.5t149.5 -14.5t109 -32.5l-32 -199q-135 23 -209 23t-99 -25q-43 -43 -43 -195.5t43 -195.5q20 -20 64 -21q106 0 248 45l53 -202q-61 -33 -132 -48.5t-151 -15.5q-182 0 -293.5 103.5t-111.5 326.5z" />
<glyph unicode="&#xaa;" horiz-adv-x="894" d="M55 871.5q0 138.5 91 202t247 63.5h152q0 74 -25.5 96t-97.5 22q-121 0 -287 -51l-53 195q203 61 336 61q362 0 362 -319v-531h-172l-39 78h-8q-150 -96 -264.5 -96t-178 70.5t-63.5 209zM293 872q0 -76 72 -75q78 0 180 45v104q-45 2 -120 2t-103.5 -14t-28.5 -62z" />
<glyph unicode="&#xab;" horiz-adv-x="1198" d="M37 707l330 555l235 -138l-254 -411v-13l254 -411l-235 -137zM604 707l326 546l233 -137l-248 -403v-13l248 -403l-233 -137z" />
<glyph unicode="&#xac;" horiz-adv-x="1230" d="M12 463v272h1172v-491h-281v219h-891z" />
<glyph unicode="&#xad;" horiz-adv-x="587" d="M35 535v270h528v-270h-528z" />
<glyph unicode="&#xae;" horiz-adv-x="1703" d="M102 653.5q0 327.5 216.5 542.5t538 215t533.5 -213t212 -542.5t-212 -542.5t-540 -213t-538 213t-210 540.5zM291 653.5q0 -264.5 148.5 -417t411.5 -152.5t412.5 153.5t149.5 418t-149.5 418t-407.5 153.5t-411.5 -154.5t-153.5 -419zM508 246l6 387l-4 436 q197 16 348 16q342 0 342 -276q0 -197 -149 -266v-6l163 -291h-278l-98 272l-88 2v-274h-242zM750 717q31 -2 96 -2t81.5 19.5t16.5 68.5t-16.5 66.5t-68.5 17.5t-107 -6z" />
<glyph unicode="&#xaf;" horiz-adv-x="1220" d="M252 1362v197h729v-197h-729z" />
<glyph unicode="&#xb0;" horiz-adv-x="720" d="M12 1148q0 177 100.5 262t247 85t248 -85t101.5 -262t-101.5 -263t-247 -86t-247 86t-101.5 263zM254 1146.5q0 -110.5 106.5 -110.5t106.5 110.5t-106.5 110.5t-106.5 -110.5z" />
<glyph unicode="&#xb1;" horiz-adv-x="1216" d="M61 0v270h1094v-270h-1094zM61 672v270h410v262h274v-262h410v-270h-410v-291h-274v291h-410z" />
<glyph unicode="&#xb2;" horiz-adv-x="843" d="M84 1362q182 100 360 100q113 0 192 -66.5t79 -180t-148 -287.5l-98 -109l272 8v-217h-622v160q133 150 215 244q135 152 135 196q0 33 -43 33q-92 0 -252 -90z" />
<glyph unicode="&#xb3;" horiz-adv-x="786" d="M66 651l55 207q180 -43 268 -43q45 0 45 57q0 72 -72 72h-169v182q190 14 215 39q10 10 10 37t-8.5 35t-72 8t-206.5 -18l-25 209q160 27 256 26q305 0 306 -239q0 -47 -14.5 -82t-29 -49.5t-40.5 -30.5v-8q109 -53 108 -179q0 -281 -295 -280q-143 0 -331 57z" />
<glyph unicode="&#xb4;" horiz-adv-x="1280" d="M313 1493l600 178l64 -229l-619 -119z" />
<glyph unicode="&#xb5;" d="M135 -340v1544h318v-708q0 -197 27.5 -221.5t84.5 -24.5q125 0 250 86v868h318v-1204h-203l-39 125h-12q-82 -47 -125 -71.5t-122 -52.5t-131 -28t-102 17l-10 -8l25 -322h-279z" />
<glyph unicode="&#xb6;" horiz-adv-x="1505" d="M55 906q0 288 136.5 411t402.5 123h756v-1780h-318v1507h-192v-1507h-316v692q-231 14 -350 140t-119 414z" />
<glyph unicode="&#xb7;" horiz-adv-x="722" d="M154 679.5q0 106.5 60 155t148.5 48.5t147.5 -48.5t59 -155t-60 -157.5t-146.5 -51t-147.5 51t-61 157.5z" />
<glyph unicode="&#xb8;" horiz-adv-x="1003" d="M362 -170q92 -10 149.5 -10t78 11t20.5 54t-22 156l155 41q45 -135 45 -230.5t-65.5 -157t-181.5 -61.5q-72 0 -179 19v178z" />
<glyph unicode="&#xb9;" horiz-adv-x="831" d="M55 1255l332 205l193 -14v-619h174v-217h-621v217h203v363h-8l-152 -111z" />
<glyph unicode="&#xba;" horiz-adv-x="774" d="M2 1028q0 213 88 323.5t298 110.5t297 -110.5t87 -324.5t-87 -324.5t-297 -110.5t-298 111.5t-88 324.5zM262 1027q0 -132 26.5 -174t97.5 -42t99.5 43t28.5 174t-27.5 174t-99.5 43t-98.5 -43t-26.5 -175z" />
<glyph unicode="&#xbb;" horiz-adv-x="1198" d="M35 297l248 403v13l-248 403l233 137l326 -546l-326 -547zM596 289l254 411v13l-254 411l235 138l330 -555l-330 -555z" />
<glyph unicode="&#xbc;" horiz-adv-x="2111" d="M55 1255l332 205l193 -14v-619h174v-217h-621v217h203v363h-8l-152 -111zM553 -18l469 849l324 670h294l-423 -799l-367 -720h-297zM1286 154v176l219 555l219 -23l-192 -497l162 2l28 286h207v-286l90 2v-215h-90v-154h-239l2 154h-406z" />
<glyph unicode="&#xbd;" horiz-adv-x="2105" d="M55 1255l332 205l193 -14v-619h174v-217h-621v217h203v363h-8l-152 -111zM547 -18l469 849l323 670h295l-424 -799l-366 -720h-297zM1339 752q183 100 361 100q113 0 191.5 -66.5t78.5 -180t-147 -288.5l-99 -108l273 8v-217h-623v160q133 150 215 243q135 152 135 197 q0 33 -43 33q-92 0 -251 -90z" />
<glyph unicode="&#xbe;" horiz-adv-x="1951" d="M61 651l56 207q180 -43 268 -43q45 0 45 57q0 72 -72 72h-170v182q190 14 215 39q10 10 10.5 37t-8 35t-72 8t-206.5 -18l-25 209q160 27 256 26q305 0 306 -239q0 -47 -14.5 -82t-29 -49.5t-40.5 -30.5v-8q109 -53 108 -179q0 -281 -295 -280q-143 0 -332 57zM408 -18 l469 849l323 670h295l-424 -799l-366 -720h-297zM1126 154v176l220 555l219 -23l-193 -497l162 2l29 286h206v-286h91v-213h-91v-154h-239l2 154h-406z" />
<glyph unicode="&#xbf;" horiz-adv-x="1009" d="M16 143q0 152 95 250q80 82 160.5 135.5t107.5 76t55.5 71.5t34.5 115h293v-39q0 -162 -84 -252q-45 -47 -76 -73t-94 -69q-164 -111 -164 -215q0 -63 39 -91.5t113 -28.5q135 0 331 63l66 23l98 -242q-84 -49 -225 -88t-254 -39q-219 0 -357.5 113.5t-138.5 289.5z M434 932v274h359v-274h-359z" />
<glyph unicode="&#xc0;" horiz-adv-x="1173" d="M-23 0l412 1440h385l412 -1440h-326l-82 319h-393l-82 -319h-326zM252 1636l51 226l612 -152l-34 -170zM446 590h271l-129 555h-13z" />
<glyph unicode="&#xc1;" horiz-adv-x="1173" d="M-23 0l412 1440h385l412 -1440h-326l-82 319h-393l-82 -319h-326zM279 1706l602 158l57 -226l-619 -102zM446 590h271l-129 555h-13z" />
<glyph unicode="&#xc2;" horiz-adv-x="1173" d="M-23 0l412 1440h385l412 -1440h-326l-82 319h-393l-82 -319h-326zM166 1649l342 204h149l342 -204l-67 -125l-342 121h-15l-342 -121zM446 590h271l-129 555h-13z" />
<glyph unicode="&#xc3;" horiz-adv-x="1173" d="M-23 0l412 1440h385l412 -1440h-326l-82 319h-393l-82 -319h-326zM166 1556q6 259 199 259q70 0 233.5 -44.5t181 -44.5t33.5 20.5t33 61.5l153 -24q-6 -256 -194 -256q-68 0 -233.5 46t-182.5 46q-31 0 -57 -64l-10 -20zM446 590h271l-129 555h-13z" />
<glyph unicode="&#xc4;" horiz-adv-x="1173" d="M-23 0l412 1440h385l412 -1440h-326l-82 319h-393l-82 -319h-326zM180 1569v221h301v-221h-301zM446 590h271l-129 555h-13zM682 1569v221h301v-221h-301z" />
<glyph unicode="&#xc5;" horiz-adv-x="1173" d="M-23 0l412 1440h385l412 -1440h-326l-82 319h-393l-82 -319h-326zM365 1694.5q0 103.5 62.5 148.5t156.5 45q217 0 217 -194q0 -102 -61.5 -147.5t-154.5 -45.5t-156.5 45t-63.5 148.5zM446 590h271l-129 555h-13zM510 1695q0 -36 17.5 -49.5t56.5 -13.5t55 13.5t16 49.5 t-15 48t-56 12t-57.5 -12t-16.5 -48z" />
<glyph unicode="&#xc6;" horiz-adv-x="1738" d="M-35 0l651 1440h1029v-279l-545 6l-8 -303h501v-270h-501l8 -324l545 4v-274h-865v319h-350l-139 -319h-326zM514 590h266v534h-37z" />
<glyph unicode="&#xc7;" horiz-adv-x="1265" d="M102 707q0 360 115 538q53 84 134 134.5t168 68.5t183.5 18t226.5 -15t208 -36l-35 -262q-254 31 -389 31t-183 -37q-92 -74 -92 -447q0 -170 30 -278.5t74 -141t131 -32.5t191.5 27.5t237.5 80.5l92 -241q-143 -90 -344 -125q16 -61 16 -129q0 -104 -65.5 -166 t-182.5 -62q-72 0 -178 19v178q92 -10 149.5 -10t78 11t20.5 54t-10 88q-575 4 -576 734z" />
<glyph unicode="&#xc8;" horiz-adv-x="1128" d="M170 0v1440h864v-279l-545 6l-8 -303h502v-270h-502l8 -324l545 4v-274h-864zM250 1636l51 226l612 -152l-34 -170z" />
<glyph unicode="&#xc9;" horiz-adv-x="1128" d="M170 0v1440h864v-279l-545 6l-8 -303h502v-270h-502l8 -324l545 4v-274h-864zM211 1706l602 158l57 -226l-618 -102z" />
<glyph unicode="&#xca;" horiz-adv-x="1128" d="M160 1649l342 204h149l342 -204l-67 -125l-342 121h-15l-342 -121zM170 0v1440h864v-279l-545 6l-8 -303h502v-270h-502l8 -324l545 4v-274h-864z" />
<glyph unicode="&#xcb;" horiz-adv-x="1128" d="M170 0v1440h864v-279l-545 6l-8 -303h502v-270h-502l8 -324l545 4v-274h-864zM203 1569v221h301v-221h-301zM705 1569v221h301v-221h-301z" />
<glyph unicode="&#xcc;" horiz-adv-x="663" d="M-43 1636l53 226l582 -154l-37 -170zM170 0l8 664l-8 776h324l-7 -641l7 -799h-324z" />
<glyph unicode="&#xcd;" horiz-adv-x="663" d="M59 1706l582 158l53 -226l-598 -102zM170 0l8 664l-8 776h324l-7 -641l7 -799h-324z" />
<glyph unicode="&#xce;" horiz-adv-x="663" d="M-51 1669l307 184h150l305 -184l-68 -133l-305 109h-14l-308 -109zM170 0l8 664l-8 776h324l-7 -641l7 -799h-324z" />
<glyph unicode="&#xcf;" horiz-adv-x="663" d="M-39 1569v221h293v-221h-293zM170 0l8 664l-8 776h324l-7 -641l7 -799h-324zM410 1569v221h292v-221h-292z" />
<glyph unicode="&#xd0;" horiz-adv-x="1404" d="M61 612v238h136v588q348 29 502.5 28.5t262 -40.5t171 -104.5t104.5 -162.5q66 -164 66 -422q0 -408 -162 -586t-455 -178q-139 0 -489 27v612h-136zM516 256q86 -10 196.5 -10t153.5 39q94 78 94.5 441.5t-88.5 428.5q-45 35 -157 35l-199 -12v-328h250v-238h-250v-356z " />
<glyph unicode="&#xd1;" horiz-adv-x="1466" d="M170 0v1440h401l445 -1022h12l-24 1022h296v-1440h-401l-444 1022h-13l25 -1022h-297zM313 1556q6 259 199 259q70 0 233.5 -44.5t181 -44.5t34 20.5t32.5 61.5l154 -24q-6 -256 -195 -256q-68 0 -233.5 46t-181.5 46q-31 0 -58 -64l-10 -20z" />
<glyph unicode="&#xd2;" horiz-adv-x="1433" d="M102 723q0 496 254 655q137 88 361 88q350 0 495 -221q119 -180 119 -522q0 -440 -184 -604q-88 -80 -191.5 -113t-238.5 -33t-238.5 33t-191.5 113q-184 164 -185 604zM410 1636l51 226l612 -152l-35 -170zM436 719.5q0 -195.5 32 -298t88 -134t160.5 -31.5t160.5 33 q121 70 120 430q0 365 -116 432q-57 33 -164 33t-163 -33t-87 -134.5t-31 -297z" />
<glyph unicode="&#xd3;" horiz-adv-x="1433" d="M102 723q0 496 254 655q137 88 361 88q350 0 495 -221q119 -180 119 -522q0 -440 -184 -604q-88 -80 -191.5 -113t-238.5 -33t-238.5 33t-191.5 113q-184 164 -185 604zM365 1706l602 158l57 -226l-618 -102zM436 719.5q0 -195.5 32 -298t88 -134t160.5 -31.5t160.5 33 q121 70 120 430q0 365 -116 432q-57 33 -164 33t-163 -33t-87 -134.5t-31 -297z" />
<glyph unicode="&#xd4;" horiz-adv-x="1433" d="M102 723q0 496 254 655q137 88 361 88q350 0 495 -221q119 -180 119 -522q0 -440 -184 -604q-88 -80 -191.5 -113t-238.5 -33t-238.5 33t-191.5 113q-184 164 -185 604zM299 1649l342 204h150l342 -204l-68 -125l-342 121h-14l-342 -121zM436 719.5q0 -195.5 32 -298 t88 -134t160.5 -31.5t160.5 33q121 70 120 430q0 365 -116 432q-57 33 -164 33t-163 -33t-87 -134.5t-31 -297z" />
<glyph unicode="&#xd5;" horiz-adv-x="1433" d="M102 723q0 496 254 655q137 88 361 88q350 0 495 -221q119 -180 119 -522q0 -440 -184 -604q-88 -80 -191.5 -113t-238.5 -33t-238.5 33t-191.5 113q-184 164 -185 604zM299 1556q6 259 199 259q70 0 233.5 -44.5t181 -44.5t34 20.5t32.5 61.5l154 -24q-6 -256 -195 -256 q-70 0 -234.5 46t-181.5 46q-31 0 -59 -64l-8 -20zM436 719.5q0 -195.5 32 -298t88 -134t160.5 -31.5t160.5 33q121 70 120 430q0 365 -116 432q-57 33 -164 33t-163 -33t-87 -134.5t-31 -297z" />
<glyph unicode="&#xd6;" horiz-adv-x="1433" d="M102 723q0 496 254 655q137 88 361 88q350 0 495 -221q119 -180 119 -522q0 -440 -184 -604q-88 -80 -191.5 -113t-238.5 -33t-238.5 33t-191.5 113q-184 164 -185 604zM315 1569v221h301v-221h-301zM436 719.5q0 -195.5 32 -298t88 -134t160.5 -31.5t160.5 33 q121 70 120 430q0 365 -116 432q-57 33 -164 33t-163 -33t-87 -134.5t-31 -297zM817 1569v221h301v-221h-301z" />
<glyph unicode="&#xd7;" horiz-adv-x="1210" d="M66 942l190 191l348 -349l350 353l191 -191l-352 -350l346 -346l-191 -189l-344 345l-346 -347l-190 191l346 346z" />
<glyph unicode="&#xd8;" horiz-adv-x="1433" d="M102 723q0 496 254 655q137 88 361 88q111 0 209 -24l22 51h238l-70 -143q215 -174 215 -627q0 -440 -184 -604q-88 -80 -191.5 -113t-235.5 -33t-231 29l-36 -82h-240l88 182q-199 183 -199 621zM436 726q0 -189 25 -292l147 301l199 443q-39 6 -118 6t-135 -33 t-87 -134.5t-31 -290.5zM610 266q39 -10 125 -10t142 33q121 70 120 430q0 209 -32 309l-170 -356z" />
<glyph unicode="&#xd9;" horiz-adv-x="1437" d="M170 633v807h322v-754q0 -193 21.5 -285t66.5 -120.5t140 -27.5t139 28.5t65.5 117.5t21.5 287v754h322v-791q0 -381 -134.5 -528.5t-414 -147.5t-414.5 145.5t-135 514.5zM408 1636l51 226l612 -152l-35 -170z" />
<glyph unicode="&#xda;" horiz-adv-x="1437" d="M170 633v807h322v-754q0 -193 21.5 -285t66.5 -120.5t140 -27.5t139 28.5t65.5 117.5t21.5 287v754h322v-791q0 -381 -134.5 -528.5t-414 -147.5t-414.5 145.5t-135 514.5zM367 1706l602 158l57 -226l-618 -102z" />
<glyph unicode="&#xdb;" horiz-adv-x="1437" d="M170 633v807h322v-754q0 -193 21.5 -285t66.5 -120.5t140 -27.5t139 28.5t65.5 117.5t21.5 287v754h322v-791q0 -381 -134.5 -528.5t-414 -147.5t-414.5 145.5t-135 514.5zM301 1649l342 204h150l342 -204l-68 -125l-342 121h-14l-342 -121z" />
<glyph unicode="&#xdc;" horiz-adv-x="1437" d="M170 633v807h322v-754q0 -193 21.5 -285t66.5 -120.5t140 -27.5t139 28.5t65.5 117.5t21.5 287v754h322v-791q0 -381 -134.5 -528.5t-414 -147.5t-414.5 145.5t-135 514.5zM317 1569v221h301v-221h-301zM819 1569v221h301v-221h-301z" />
<glyph unicode="&#xdd;" horiz-adv-x="1187" d="M-8 1440h342l252 -660h12l252 660h342l-442 -922l4 -518h-326l6 518zM252 1706l602 158l57 -226l-618 -102z" />
<glyph unicode="&#xde;" horiz-adv-x="1292" d="M166 0l8 750l-8 690h321v-170q164 8 244 8q229 0 353 -128t124 -378q0 -303 -166 -424q-143 -102 -358 -102l-197 6v-252h-321zM487 530q98 -14 204 -14t146 35t39.5 216t-47.5 222q-29 29 -141.5 29t-200.5 -10v-478z" />
<glyph unicode="&#xdf;" horiz-adv-x="1374" d="M170 0v932q0 139 43 245.5t117 168.5q145 121 351 120.5t355.5 -105t149.5 -308.5q0 -102 -50.5 -179t-115.5 -110v-12q227 -86 227 -336q0 -121 -41 -211t-110 -139q-135 -92 -308 -93l-153 13l27 247q41 -2 111.5 -2t105 47.5t34.5 153t-50 148.5t-148 43h-41v241 q123 8 164 46t41 126q0 178 -201 178q-188 0 -189 -258v-956h-319z" />
<glyph unicode="&#xe0;" horiz-adv-x="1273" d="M104 381q0 199 140.5 289t408.5 90h154q0 137 -26.5 177t-120 40t-207 -20.5t-252.5 -61.5l-66 229q84 39 240.5 73t279.5 34q252 0 360.5 -116t108.5 -337v-778h-200l-41 133h-13q-25 -18 -64.5 -45t-150 -71t-200.5 -44q-152 0 -251.5 104.5t-99.5 303.5zM295 1442 l53 221l610 -170l-38 -170zM428 387q0 -86 27.5 -120t85.5 -34q106 0 225 58l41 20v213q-72 10 -191.5 10.5t-153.5 -30.5t-34 -117z" />
<glyph unicode="&#xe1;" horiz-adv-x="1273" d="M104 381q0 199 140.5 289t408.5 90h154q0 137 -26.5 177t-120 40t-207 -20.5t-252.5 -61.5l-66 229q84 39 240.5 73t279.5 34q252 0 360.5 -116t108.5 -337v-778h-200l-41 133h-13q-25 -18 -64.5 -45t-150 -71t-200.5 -44q-152 0 -251.5 104.5t-99.5 303.5zM311 1493 l600 178l64 -229l-619 -119zM428 387q0 -86 27.5 -120t85.5 -34q106 0 225 58l41 20v213q-72 10 -191.5 10.5t-153.5 -30.5t-34 -117z" />
<glyph unicode="&#xe2;" horiz-adv-x="1273" d="M104 381q0 199 140.5 289t408.5 90h154q0 137 -26.5 177t-120 40t-207 -20.5t-252.5 -61.5l-66 229q84 39 240.5 73t279.5 34q252 0 360.5 -116t108.5 -337v-778h-200l-41 133h-13q-25 -18 -64.5 -45t-150 -71t-200.5 -44q-152 0 -251.5 104.5t-99.5 303.5zM219 1438 l342 215h150l342 -215l-68 -125l-342 131h-14l-342 -131zM428 387q0 -86 27.5 -120t85.5 -34q106 0 225 58l41 20v213q-72 10 -191.5 10.5t-153.5 -30.5t-34 -117z" />
<glyph unicode="&#xe3;" horiz-adv-x="1273" d="M104 381q0 199 140.5 289t408.5 90h154q0 137 -26.5 177t-120 40t-207 -20.5t-252.5 -61.5l-66 229q84 39 240.5 73t279.5 34q252 0 360.5 -116t108.5 -337v-778h-200l-41 133h-13q-25 -18 -64.5 -45t-150 -71t-200.5 -44q-152 0 -251.5 104.5t-99.5 303.5zM193 1372 q5 262 198 262q70 0 233.5 -44t181 -44t34 20.5t32.5 61.5l154 -24q-6 -260 -195 -261q-70 0 -233.5 46.5t-179.5 46.5q-33 0 -62 -64l-8 -20zM428 387q0 -86 27.5 -120t85.5 -34q106 0 225 58l41 20v213q-72 10 -191.5 10.5t-153.5 -30.5t-34 -117z" />
<glyph unicode="&#xe4;" horiz-adv-x="1273" d="M104 381q0 199 140.5 289t408.5 90h154q0 137 -26.5 177t-120 40t-207 -20.5t-252.5 -61.5l-66 229q84 39 240.5 73t279.5 34q252 0 360.5 -116t108.5 -337v-778h-200l-41 133h-13q-25 -18 -64.5 -45t-150 -71t-200.5 -44q-152 0 -251.5 104.5t-99.5 303.5zM221 1368v221 h301v-221h-301zM428 387q0 -86 27.5 -120t85.5 -34q106 0 225 58l41 20v213q-72 10 -191.5 10.5t-153.5 -30.5t-34 -117zM723 1368v221h301v-221h-301z" />
<glyph unicode="&#xe5;" horiz-adv-x="1273" d="M104 381q0 199 140.5 289t408.5 90h154q0 137 -26.5 177t-120 40t-207 -20.5t-252.5 -61.5l-66 229q84 39 240.5 73t279.5 34q252 0 360.5 -116t108.5 -337v-778h-200l-41 133h-13q-25 -18 -64.5 -45t-150 -71t-200.5 -44q-152 0 -251.5 104.5t-99.5 303.5zM418 1502.5 q0 107.5 62.5 152.5t154.5 45q215 0 215 -199q0 -106 -61.5 -151t-153.5 -45t-154.5 45t-62.5 152.5zM428 387q0 -86 27.5 -120t85.5 -34q106 0 225 58l41 20v213q-72 10 -191.5 10.5t-153.5 -30.5t-34 -117zM549 1502q0 -46 20.5 -63.5t65.5 -17.5t64.5 17.5t19.5 63.5 t-18.5 61.5t-65.5 15.5t-66.5 -15.5t-19.5 -61.5z" />
<glyph unicode="&#xe6;" horiz-adv-x="1949" d="M115 381q0 199 141 286t408 87h153q0 152 -26 184q-27 39 -119 39t-207 -20.5t-254 -61.5l-66 229q86 39 243 73t288 34q217 0 330 -101h8q135 100 366.5 100.5t356.5 -129.5t125 -433v-170h-721q2 -182 63 -234q43 -39 121 -39q143 0 365 66l71 22l78 -229 q-92 -43 -229 -77t-242 -34q-301 0 -434 183h-8q-80 -51 -127 -80t-146.5 -66t-179.5 -37q-162 0 -260 104.5t-98 303.5zM438 385q0 -82 27 -117t84 -35t123.5 19.5t144.5 58.5v207q-74 10 -192.5 10t-152.5 -30.5t-34 -112.5zM1143 727l395 8q-2 156 -37 201 q-37 45 -147.5 45t-157.5 -53.5t-53 -200.5z" />
<glyph unicode="&#xe7;" horiz-adv-x="1112" d="M98 606q0 360 181 500q160 125 417 125q176 0 346 -45l-34 -240q-213 33 -337 33t-169 -45q-76 -80 -76 -341t98 -337q41 -31 103 -31q115 0 299 74l61 25l86 -226q-98 -72 -256 -106q16 -74 17 -131q0 -104 -66 -166t-182 -62q-72 0 -178 19v178q92 -10 149 -10t77.5 11 t20.5 54t-10 88h-2q-252 0 -398.5 155t-146.5 478z" />
<glyph unicode="&#xe8;" horiz-adv-x="1236" d="M98 602q0 629 553 629q248 0 373 -132t125 -437v-170h-721q0 -172 64 -228q43 -39 120 -39q143 0 365 66l72 22l77 -229q-92 -43 -229.5 -77t-241.5 -34q-557 0 -557 629zM303 1442l53 221l611 -170l-39 -170zM430 721l395 8q-4 162 -37 207q-37 45 -147.5 45 t-157.5 -53.5t-53 -206.5z" />
<glyph unicode="&#xe9;" horiz-adv-x="1236" d="M98 602q0 629 553 629q248 0 373 -132t125 -437v-170h-721q0 -172 64 -228q43 -39 120 -39q143 0 365 66l72 22l77 -229q-92 -43 -229.5 -77t-241.5 -34q-557 0 -557 629zM324 1493l600 178l63 -229l-618 -119zM430 721l395 8q-4 162 -37 207q-37 45 -147.5 45 t-157.5 -53.5t-53 -206.5z" />
<glyph unicode="&#xea;" horiz-adv-x="1236" d="M98 602q0 629 553 629q248 0 373 -132t125 -437v-170h-721q0 -172 64 -228q43 -39 120 -39q143 0 365 66l72 22l77 -229q-92 -43 -229.5 -77t-241.5 -34q-557 0 -557 629zM229 1438l342 215h150l342 -215l-68 -125l-342 131h-14l-342 -131zM430 721l395 8q-4 162 -37 207 q-37 45 -147.5 45t-157.5 -53.5t-53 -206.5z" />
<glyph unicode="&#xeb;" horiz-adv-x="1236" d="M98 602q0 629 553 629q248 0 373 -132t125 -437v-170h-721q0 -172 64 -228q43 -39 120 -39q143 0 365 66l72 22l77 -229q-92 -43 -229.5 -77t-241.5 -34q-557 0 -557 629zM229 1368v221h301v-221h-301zM430 721l395 8q-4 162 -37 207q-37 45 -147.5 45t-157.5 -53.5 t-53 -206.5zM731 1368v221h301v-221h-301z" />
<glyph unicode="&#xec;" horiz-adv-x="661" d="M-29 1440l54 221l569 -168l-39 -170zM172 0v1204h317v-1204h-317z" />
<glyph unicode="&#xed;" horiz-adv-x="661" d="M45 1493l559 178l64 -229l-578 -119zM172 0v1204h317v-1204h-317z" />
<glyph unicode="&#xee;" horiz-adv-x="661" d="M-45 1446l301 207h150l301 -207l-68 -127l-301 125h-14l-301 -125zM172 0v1204h317v-1204h-317z" />
<glyph unicode="&#xef;" horiz-adv-x="661" d="M-31 1368v221h301v-221h-301zM172 0v1204h317v-1204h-317zM389 1368v221h301v-221h-301z" />
<glyph unicode="&#xf0;" horiz-adv-x="1280" d="M111 520q0 244 118.5 396.5t368.5 152.5q170 0 299 -84l12 6q-39 111 -141 226l-266 -93l-17 185l140 49l-107 86l182 141q106 -57 191 -129l199 72l14 -193l-86 -30q150 -223 149 -656q0 -328 -121.5 -502t-403.5 -174t-406.5 151.5t-124.5 395.5zM434 520 q0 -172 44 -238.5t162 -66.5t161 66.5t43 239.5t-43 239.5t-160 66.5t-162 -67.5t-45 -239.5z" />
<glyph unicode="&#xf1;" d="M162 0v1204h203l36 -121h13q250 147 432 147.5t247.5 -114.5t65.5 -328v-788h-317v729q0 160 -27 192.5t-84 32.5q-127 0 -252 -86v-868h-317zM260 1352q6 262 199 262q70 0 233.5 -44t181 -44t34 20.5t32.5 61.5l154 -25q-6 -260 -195 -260q-68 0 -233.5 46t-182.5 46 q-31 0 -57 -63l-10 -21z" />
<glyph unicode="&#xf2;" horiz-adv-x="1253" d="M98 602q0 307 122 468t408.5 161t406.5 -160t120 -469t-120 -469t-406.5 -160t-408.5 161t-122 468zM287 1442l53 221l610 -170l-39 -170zM422 602.5q0 -231.5 43 -309.5t163 -78t161.5 77t41.5 310.5t-41.5 310t-161.5 76.5t-163 -77.5t-43 -309z" />
<glyph unicode="&#xf3;" horiz-adv-x="1253" d="M98 602q0 307 122 468t408.5 161t406.5 -160t120 -469t-120 -469t-406.5 -160t-408.5 161t-122 468zM305 1493l600 178l64 -229l-619 -119zM422 602.5q0 -231.5 43 -309.5t163 -78t161.5 77t41.5 310.5t-41.5 310t-161.5 76.5t-163 -77.5t-43 -309z" />
<glyph unicode="&#xf4;" horiz-adv-x="1253" d="M98 602q0 307 122 468t408.5 161t406.5 -160t120 -469t-120 -469t-406.5 -160t-408.5 161t-122 468zM215 1438l342 215h150l342 -215l-68 -125l-342 131h-14l-342 -131zM422 602.5q0 -231.5 43 -309.5t163 -78t161.5 77t41.5 310.5t-41.5 310t-161.5 76.5t-163 -77.5 t-43 -309z" />
<glyph unicode="&#xf5;" horiz-adv-x="1253" d="M98 602q0 307 122 468t408.5 161t406.5 -160t120 -469t-120 -469t-406.5 -160t-408.5 161t-122 468zM217 1372q6 262 199 262q70 0 233.5 -44t181 -44t34 20.5t32.5 61.5l154 -24q-6 -260 -195 -261q-70 0 -233.5 46.5t-180.5 46.5q-33 0 -61 -64l-8 -20zM422 602.5 q0 -231.5 43 -309.5t163 -78t161.5 77t41.5 310.5t-41.5 310t-161.5 76.5t-163 -77.5t-43 -309z" />
<glyph unicode="&#xf6;" horiz-adv-x="1253" d="M98 602q0 307 122 468t408.5 161t406.5 -160t120 -469t-120 -469t-406.5 -160t-408.5 161t-122 468zM229 1368v221h301v-221h-301zM422 602.5q0 -231.5 43 -309.5t163 -78t161.5 77t41.5 310.5t-41.5 310t-161.5 76.5t-163 -77.5t-43 -309zM731 1368v221h301v-221h-301z " />
<glyph unicode="&#xf7;" horiz-adv-x="1325" d="M61 465v272h1203v-272h-1203zM479 0v274h359v-274h-359zM479 930v274h359v-274h-359z" />
<glyph unicode="&#xf8;" horiz-adv-x="1253" d="M98 602q0 307 122 468t409 161q102 0 188 -23l35 78h213l-80 -164q170 -147 170 -520q0 -309 -120 -469t-406 -160q-88 0 -174 21l-33 -74h-215l74 154q-182 143 -183 528zM422 650.5q0 -183.5 12 -263.5l139 283l140 307q-37 12 -84 12q-121 0 -164 -77.5t-43 -261z M559 221q21 -6 70 -6q119 0 160.5 77t41.5 310q0 102 -10 184l-86 -180z" />
<glyph unicode="&#xf9;" d="M135 420v784h318v-753q0 -152 26.5 -176.5t85.5 -24.5q125 0 250 86v868h318v-1204h-203l-39 125h-12q-74 -45 -123 -70.5t-131 -53.5t-154 -28q-190 0 -263 117t-73 330zM260 1442l53 221l611 -170l-39 -170z" />
<glyph unicode="&#xfa;" d="M135 420v784h318v-753q0 -152 26.5 -176.5t85.5 -24.5q125 0 250 86v868h318v-1204h-203l-39 125h-12q-74 -45 -123 -70.5t-131 -53.5t-154 -28q-190 0 -263 117t-73 330zM340 1493l600 178l64 -229l-619 -119z" />
<glyph unicode="&#xfb;" d="M135 420v784h318v-753q0 -152 26.5 -176.5t85.5 -24.5q125 0 250 86v868h318v-1204h-203l-39 125h-12q-74 -45 -123 -70.5t-131 -53.5t-154 -28q-190 0 -263 117t-73 330zM223 1438l342 215h150l342 -215l-68 -125l-342 131h-14l-342 -131z" />
<glyph unicode="&#xfc;" d="M135 420v784h318v-753q0 -152 26.5 -176.5t85.5 -24.5q125 0 250 86v868h318v-1204h-203l-39 125h-12q-74 -45 -123 -70.5t-131 -53.5t-154 -28q-190 0 -263 117t-73 330zM231 1368v221h301v-221h-301zM733 1368v221h301v-221h-301z" />
<glyph unicode="&#xfd;" horiz-adv-x="1105" d="M-8 1204h352l211 -805h12l215 805h326l-424 -1141l-115 -403h-329l178 444zM281 1493l600 178l63 -229l-618 -119z" />
<glyph unicode="&#xfe;" horiz-adv-x="1288" d="M162 -340v1899h317v-359q158 31 252 31q459 0 459 -610q0 -647 -500 -648q-74 0 -211 21v-334h-317zM479 250q98 -20 190.5 -20.5t121.5 24.5q72 59 71.5 353t-45.5 337q-31 27 -100 27q-127 0 -238 -27v-694z" />
<glyph unicode="&#xff;" horiz-adv-x="1105" d="M-8 1204h352l211 -805h12l215 805h326l-424 -1141l-115 -403h-329l178 444zM158 1368v221h301v-221h-301zM659 1368v221h302v-221h-302z" />
<glyph unicode="&#x152;" horiz-adv-x="1986" d="M102 723q0 496 254 655q137 88 361 88q164 0 303 -75h8v49h864v-279l-544 6l-9 -303h502v-270h-502l9 -324l544 4v-274h-864v51h-8q-141 -78 -289.5 -78t-252 33t-191.5 113q-184 164 -185 604zM436 719.5q0 -195.5 32 -298t88 -134t160.5 -31.5t160.5 33q121 70 120 430 q0 365 -116 432q-57 33 -164 33t-163 -33t-87 -134.5t-31 -297z" />
<glyph unicode="&#x153;" horiz-adv-x="1978" d="M98 602q0 307 122 468t409 161q244 0 372 -129h9q137 129 383.5 129t371.5 -132t125 -437v-170h-721v-9q6 -170 64 -219q43 -39 121 -39q143 0 364 66l72 22l78 -229q-92 -43 -229.5 -77t-241.5 -34q-250 0 -387 129h-9q-125 -129 -372 -129q-287 0 -409 161t-122 468z M422 602.5q0 -231.5 43 -309.5t163 -78t161.5 77t41.5 310.5t-41.5 310t-161.5 76.5t-163 -77.5t-43 -309zM1171 721l396 8q-4 162 -37 207q-37 45 -147.5 45t-157.5 -53.5t-54 -206.5z" />
<glyph unicode="&#x2c6;" horiz-adv-x="1169" d="M170 1438l342 215h150l342 -215l-68 -125l-342 131h-14l-342 -131z" />
<glyph unicode="&#x2dc;" horiz-adv-x="1132" d="M150 1372q5 262 198 262q70 0 233.5 -44t181 -44t34 20.5t32.5 61.5l154 -24q-6 -260 -195 -261q-68 0 -233.5 46.5t-181.5 46.5q-31 0 -58 -64l-10 -20z" />
<glyph unicode="&#x2000;" horiz-adv-x="944" />
<glyph unicode="&#x2001;" horiz-adv-x="1888" />
<glyph unicode="&#x2002;" horiz-adv-x="944" />
<glyph unicode="&#x2003;" horiz-adv-x="1888" />
<glyph unicode="&#x2004;" horiz-adv-x="629" />
<glyph unicode="&#x2005;" horiz-adv-x="472" />
<glyph unicode="&#x2006;" horiz-adv-x="314" />
<glyph unicode="&#x2007;" horiz-adv-x="314" />
<glyph unicode="&#x2008;" horiz-adv-x="236" />
<glyph unicode="&#x2009;" horiz-adv-x="377" />
<glyph unicode="&#x200a;" horiz-adv-x="104" />
<glyph unicode="&#x2010;" horiz-adv-x="626" d="M49 535v270h529v-270h-529z" />
<glyph unicode="&#x2011;" horiz-adv-x="626" d="M49 535v270h529v-270h-529z" />
<glyph unicode="&#x2012;" horiz-adv-x="626" d="M49 535v270h529v-270h-529z" />
<glyph unicode="&#x2013;" horiz-adv-x="1216" d="M57 535l2 270h1100v-270h-1102z" />
<glyph unicode="&#x2014;" horiz-adv-x="1724" d="M98 535v270h1528v-270h-1528z" />
<glyph unicode="&#x2018;" horiz-adv-x="481" d="M90 1065q0 293 156 463l160 -94q-49 -98 -50 -271l13 -252h-269q-10 80 -10 154z" />
<glyph unicode="&#x2019;" horiz-adv-x="481" d="M90 977q49 98 49 270l-12 252h268q11 -79 11 -153q0 -293 -156 -463z" />
<glyph unicode="&#x201a;" horiz-adv-x="489" d="M90 -248q49 92 49 266l-12 252h262q10 -79 10 -153q0 -160 -43 -278t-108 -181z" />
<glyph unicode="&#x201c;" horiz-adv-x="933" d="M76 1067q0 158 45 278.5t106 188.5l164 -86q-49 -98 -49 -283l12 -252h-268q-10 80 -10 154zM543 1057q0 266 166 440l147 -80q-47 -88 -47 -262l12 -242h-270q-8 70 -8 144z" />
<glyph unicode="&#x201d;" horiz-adv-x="933" d="M78 995q47 88 47 262l-12 242h270q8 -69 8 -143q0 -266 -166 -441zM543 965q49 98 49 282l-12 252h268q10 -79 10 -153q0 -158 -45 -279t-106 -188z" />
<glyph unicode="&#x201e;" horiz-adv-x="1011" d="M82 -254q49 92 49 266l-12 258h262q10 -79 10 -153q0 -158 -44 -277t-109 -182zM553 -256q49 92 49 266l-10 260h262q8 -87 8 -161q0 -160 -43 -278t-108 -181z" />
<glyph unicode="&#x2022;" horiz-adv-x="831" d="M98 846q0 168 92.5 244.5t226.5 76.5t225 -77.5t91 -244.5t-90 -246t-225 -79t-227.5 79t-92.5 247z" />
<glyph unicode="&#x202f;" horiz-adv-x="377" />
<glyph unicode="&#x2039;" horiz-adv-x="638" d="M37 707l325 546l242 -143l-252 -397v-13l252 -397l-242 -143z" />
<glyph unicode="&#x203a;" horiz-adv-x="638" d="M35 303l252 397v13l-252 397l241 143l326 -546l-326 -547z" />
<glyph unicode="&#x205f;" horiz-adv-x="472" />
<glyph unicode="&#x20ac;" horiz-adv-x="1265" d="M49 463v201h1020v-201h-547q27 -143 80 -178q47 -37 143 -37q178 0 412 59l76 -233q-20 -10 -58 -27.5t-164 -45.5t-263 -28q-473 0 -562 490h-137zM49 797v200h139q53 274 218 379q147 90 376 90q80 0 210 -15t208 -36l-35 -260q-236 29 -381 29t-192 -38t-70 -149h547 v-200h-1020z" />
<glyph unicode="&#x25fc;" horiz-adv-x="1208" d="M0 0v1208h1208v-1208h-1208z" />
</font>
</defs>
</svg>
