<?xml version="1.0" standalone="no"?>
<!DOCTYPE svg PUBLIC "-//W3C//DTD SVG 1.1//EN" "http://www.w3.org/Graphics/SVG/1.1/DTD/svg11.dtd" >
<svg xmlns="http://www.w3.org/2000/svg" xmlns:xlink="http://www.w3.org/1999/xlink" version="1.1">
<metadata></metadata>
<defs>
<font id="rudaregular" horiz-adv-x="604" >
<font-face units-per-em="2048" ascent="1638" descent="-410" />
<missing-glyph horiz-adv-x="460" />
<glyph horiz-adv-x="0" />
<glyph unicode="&#xd;" horiz-adv-x="681" />
<glyph unicode=" "  horiz-adv-x="460" />
<glyph unicode="&#x09;" horiz-adv-x="460" />
<glyph unicode="&#xa0;" horiz-adv-x="460" />
<glyph unicode="!" horiz-adv-x="548" d="M164 0v182h221v-182h-221zM180 1423h191l-31 -1034h-131z" />
<glyph unicode="&#x22;" horiz-adv-x="694" d="M115 1423v37h170v-39l-33 -442h-109zM408 1423v37h172v-39l-35 -442h-109z" />
<glyph unicode="#" horiz-adv-x="1118" d="M51 408v145h191l49 309h-170v148h192l66 413h147l-65 -413h262l65 413h150l-66 -413h170v-148h-192l-49 -309h170v-145h-193l-63 -408h-148l64 408h-262l-64 -408h-149l63 408h-168zM391 553h262l47 309h-262z" />
<glyph unicode="$" horiz-adv-x="1048" d="M74 104l61 140q80 -43 198 -78t205 -35t130 27q86 59 86 209q0 102 -61.5 163.5t-218.5 130t-218 117.5q-137 104 -137 297q0 143 86 243.5t246 125.5v198h151v-194q143 -8 272 -43l-28 -148q-172 37 -300 37t-173 -26q-74 -41 -74 -176q0 -90 59 -158q43 -47 150 -94 q27 -12 97.5 -41t117.5 -55.5t100 -73.5q109 -94 109 -269.5t-91 -284t-245 -134.5v-222h-150v217q-90 8 -183 40t-189 87z" />
<glyph unicode="%" horiz-adv-x="1636" d="M109 1141.5q0 156.5 89 231.5t218 75t218 -75t89 -231.5t-90 -232t-218 -75.5t-217 75.5t-89 232zM252 1141q0 -170 164 -170t164 170t-164 170t-164 -170zM385 -18l381 800l319 719h152l-363 -782l-335 -737h-154zM911 294q0 157 89.5 231.5t219.5 74.5t219 -74.5 t89 -231.5t-90 -232.5t-219 -75.5t-218.5 75.5t-89.5 232.5zM1057 293q0 -170 162.5 -170t162.5 170t-162.5 170t-162.5 -170z" />
<glyph unicode="&#x26;" horiz-adv-x="1323" d="M80 374.5q0 151.5 93 257t202 150.5q-193 119 -193 324q0 150 98.5 247t274.5 97t267 -99.5t91 -236.5q0 -221 -229 -338q172 -123 307 -282q80 137 129 274l146 -47q-66 -178 -181 -356q100 -158 183 -385l-164 -7q-39 113 -121 252q-215 -252 -469 -252 q-195 0 -314.5 125t-119.5 276.5zM260 370.5q0 -106.5 72.5 -178t187.5 -71.5q199 0 379 235q-158 215 -369 340q-115 -41 -192.5 -130t-77.5 -195.5zM354 1116q0 -174 187 -268q86 35 142 103.5t56 159.5t-47 144.5t-147 53.5q-190 0 -191 -193z" />
<glyph unicode="'" horiz-adv-x="399" d="M115 1423v37h170v-39l-33 -442h-109z" />
<glyph unicode="(" horiz-adv-x="647" d="M141 674.5q0 709.5 365 929.5l78 -109q-268 -170 -268.5 -820t268.5 -822l-78 -107q-365 219 -365 928.5z" />
<glyph unicode=")" horiz-adv-x="647" d="M63 -147q268 172 268.5 822t-268.5 820l76 109q367 -219 367 -929t-367 -929z" />
<glyph unicode="*" horiz-adv-x="847" d="M74 1130l53 170l39 -14l203 -102l-33 225v39h176v-39l-35 -225l205 102l37 14l55 -170l-39 -12l-233 -39l209 -200l-133 -113l-23 31l-133 213l-135 -213l-23 -31l-131 113l27 28l182 172l-231 39z" />
<glyph unicode="+" horiz-adv-x="1271" d="M106 526v146h453v461h152v-461h454v-146h-454v-460h-152v460h-453z" />
<glyph unicode="," horiz-adv-x="552" d="M127 -281q66 80 66 207v246h167v-143q-2 -246 -151 -369z" />
<glyph unicode="-" horiz-adv-x="657" d="M94 598v145h469v-145h-469z" />
<glyph unicode="." horiz-adv-x="520" d="M156 0v182h209v-182h-209z" />
<glyph unicode="/" horiz-adv-x="880" d="M8 -201l348 854l297 770h183l-340 -833l-308 -791h-180z" />
<glyph unicode="0" horiz-adv-x="1171" d="M123 715q0 217 35 365.5t100.5 226t144 110.5t184 33t183.5 -32t144.5 -110.5t100.5 -227t34 -365.5t-34 -367.5t-100.5 -229.5t-144.5 -112t-183.5 -33t-184 33t-144 112t-100.5 229.5t-35 367.5zM301 719q0 -338 67.5 -464t219.5 -126q98 0 157 47q127 98 127 539 q0 446 -131 538q-57 43 -155.5 43t-155.5 -43q-129 -90 -129 -534z" />
<glyph unicode="1" horiz-adv-x="1038" d="M88 1061l401 377l185 -15v-1280l301 4v-147h-817v147l342 -4l14 1125h-10l-301 -318z" />
<glyph unicode="2" horiz-adv-x="1105" d="M104 1286q62 57 187 110.5t277.5 53.5t264 -96.5t111.5 -249.5q0 -199 -239 -514l-340 -436v-11l610 11v-154h-860v133q127 143 325.5 396t267 369t68.5 224q0 174 -192.5 174t-407.5 -139z" />
<glyph unicode="3" horiz-adv-x="1030" d="M33 94l65 131q218 -98 404 -98q123 0 171 60.5t48 212t-65.5 219t-213.5 67.5h-190v135q262 23 326 47q88 35 102 138q4 27 4 63q0 131 -46 182.5t-228 51.5q-78 0 -281 -25l-20 139q127 33 315 33q436 0 436 -358q0 -94 -27.5 -162t-70.5 -99q-78 -55 -131 -63v-8 q96 -12 176 -80q96 -84 96 -277.5t-103.5 -311.5t-324.5 -118q-111 0 -221.5 30t-165.5 60z" />
<glyph unicode="4" horiz-adv-x="1099" d="M59 332v129l324 985l168 -23l-309 -938v-10l460 8l39 551h127v-551l131 4v-155h-131l2 -332h-174l6 332h-643z" />
<glyph unicode="5" horiz-adv-x="1042" d="M55 123l66 129q82 -49 200.5 -87t209 -38t132.5 27.5t62 99.5t20 149q0 172 -60 230.5t-370 58.5l-161 -4l104 735h604v-149l-461 8l-59 -436q348 -12 475 -129q109 -100 109 -304t-115 -322t-313 -118q-113 0 -223.5 38t-163.5 75z" />
<glyph unicode="6" horiz-adv-x="1130" d="M123 676q0 449 158 622q76 82 166 117t184 35q170 0 270 -41l35 -12l-39 -146q-143 43 -279.5 43t-203.5 -67q-92 -96 -107 -389q109 14 217 14q233 0 358.5 -98.5t125.5 -320.5t-115 -341t-328 -119t-327.5 163t-114.5 540zM303 512q0 -252 84 -336q61 -57 201.5 -57 t195 67.5t54.5 232.5t-55.5 225.5t-217.5 60.5q-123 0 -262 -29v-164z" />
<glyph unicode="7" horiz-adv-x="964" d="M49 1268v155h869v-112l-582 -1325l-182 16l589 1266v12z" />
<glyph unicode="8" horiz-adv-x="1105" d="M96 389q0 125 72 223.5t166 137.5q-195 139 -195 344q0 159 107.5 257.5t306.5 98.5t305.5 -100.5t106.5 -257.5q0 -233 -215 -357q186 -106 233 -229q25 -59 25 -133q0 -164 -126 -282t-336 -118t-330 124t-120 292zM283 373q0 -252 269 -252t269 227q0 121 -71.5 188.5 t-255.5 131.5q-111 -41 -161 -104.5t-50 -190.5zM311 1106q0 -100 63.5 -171t213.5 -130q203 72 203 285q0 219 -238 219q-133 0 -187.5 -51.5t-54.5 -151.5z" />
<glyph unicode="9" horiz-adv-x="1126" d="M123 995q0 215 112.5 335t323.5 120t328 -165t117 -560q0 -752 -453 -752q-94 0 -191.5 31t-146.5 62l-51 32l63 129q61 -41 164 -74.5t189 -33.5t133 51t78.5 167t31.5 267q-149 -31 -274 -31q-199 0 -311.5 103.5t-112.5 318.5zM293 1006.5q0 -152.5 45 -215t201 -62.5 q135 0 282 49q0 433 -106 492q-59 33 -190.5 33t-181.5 -72t-50 -224.5z" />
<glyph unicode=":" horiz-adv-x="643" d="M211 0v182h221v-182h-221zM211 940v182h221v-182h-221z" />
<glyph unicode=";" horiz-adv-x="638" d="M166 -281q65 80 65 207v246h168v-143q-2 -246 -151 -369zM207 940v182h221v-182h-221z" />
<glyph unicode="&#x3c;" horiz-adv-x="1294" d="M154 526v146l1034 491v-172l-860 -385v-12l860 -391v-170z" />
<glyph unicode="=" horiz-adv-x="1265" d="M106 367v147h1053v-147h-1053zM106 686v148h1053v-148h-1053z" />
<glyph unicode="&#x3e;" horiz-adv-x="1300" d="M115 33v170l858 391v12l-858 385v172l1032 -491v-146z" />
<glyph unicode="?" horiz-adv-x="946" d="M63 1321q80 51 199 90t215 39q180 0 294 -105.5t114 -269.5q0 -111 -45 -193.5t-108.5 -134t-127.5 -96.5q-153 -113 -153 -260h-144v21q0 113 41 194.5t99.5 128.5t117.5 92q141 106 142 265q0 123 -82 174q-33 27 -118 26.5t-181.5 -28t-149.5 -56.5l-51 -26 q-31 70 -62 139zM270 0v182h222v-182h-222z" />
<glyph unicode="@" horiz-adv-x="1710" d="M135 650q0 214 65.5 363.5t174.5 239.5q221 184 503.5 184.5t485.5 -171.5t203 -463q0 -229 -123 -389t-268 -160q-84 0 -119 62.5t-39 181.5h-8q-119 -244 -260 -244q-90 0 -161 101.5t-71 339t80 335.5t244 98q121 0 321 -51q-4 -272 -4 -402t1 -174t5 -69.5t10.5 -32 t18.5 -6.5q70 0 146.5 115t76.5 289q0 225 -142 357t-399.5 132t-422 -153.5t-164.5 -442.5t163.5 -454.5t399.5 -165.5q86 0 178 18l17 -137q-82 -29 -201 -29q-180 0 -339 81t-265.5 257t-106.5 390zM692 666.5q0 -248.5 80 -248.5q72 0 149.5 187t77.5 349 q-68 18 -154.5 18.5t-109.5 -20.5q-43 -37 -43 -285.5z" />
<glyph unicode="A" horiz-adv-x="1054" d="M10 0l402 1423h215l401 -1423h-184l-99 381h-452l-100 -381h-183zM324 524h389l-189 760h-12z" />
<glyph unicode="B" horiz-adv-x="1257" d="M215 6l10 656l-10 763q237 25 432 25q401 0 402 -379q0 -84 -24 -149.5t-58 -98.5q-68 -63 -123 -73l-25 -5v-6q78 -4 162 -65q45 -33 74.5 -100.5t29.5 -176t-35.5 -198.5t-99.5 -138q-117 -88 -288 -88q-176 0 -447 33zM387 674l4 -545q160 -23 290 -23t175 69 t45 223.5t-66.5 215t-195.5 60.5h-252zM387 809q139 -2 265 -2t172 58.5t46 200.5t-52 199.5t-177 57.5q-119 0 -254 -16v-498z" />
<glyph unicode="C" horiz-adv-x="1193" d="M147 696q0 512 213 668q68 49 143 67.5t227.5 18.5t287.5 -33l-21 -147q-188 24 -309 24q-205 0 -250 -55q-104 -127 -104 -549q0 -201 38 -337t88 -185t150.5 -49t199.5 28.5t153 57.5l55 28l59 -135q-20 -14 -56 -34.5t-150.5 -55.5t-231.5 -35q-492 0 -492 723z" />
<glyph unicode="D" horiz-adv-x="1292" d="M215 0v1425q270 25 409.5 25t230.5 -39t145.5 -103.5t89.5 -160.5q55 -160 55 -418q0 -756 -527 -756zM385 1286l2 -1141q131 -20 209 -20q186 0 244 57q113 113 113 544q0 438 -109 534q-46 40 -192 40h-7z" />
<glyph unicode="E" horiz-adv-x="1052" d="M215 0v1423h698v-153l-526 6l-10 -479h487v-146h-487l10 -501l526 4v-154h-698z" />
<glyph unicode="F" horiz-adv-x="1024" d="M215 0v1423h698v-155l-528 6l-8 -479l473 2v-146h-473l10 -651h-172z" />
<glyph unicode="G" horiz-adv-x="1253" d="M147 717q0 440 156 596q78 78 172 107.5t267 29.5t313 -35l-21 -147q-223 26 -334 26h-8q-203 0 -256 -55q-102 -106 -104 -518q2 -414 108 -533q57 -66 218 -66h2q163 1 239 32v450l-217 10v127h381v-688q-156 -80 -385 -80q-92 0 -166 17.5t-144.5 66.5t-117.5 131 q-102 180 -103 529z" />
<glyph unicode="H" horiz-adv-x="1361" d="M215 0v1423h172l-6 -622h600l-4 622h170v-1423h-170l6 649h-602l6 -649h-172z" />
<glyph unicode="I" d="M215 -2l8 653l-8 772h174l-10 -628l10 -795z" />
<glyph unicode="J" horiz-adv-x="647" d="M-14 -12l18 147q98 -12 144.5 -12t72.5 18q57 43 58 316v966h172v-940q0 -510 -336 -510z" />
<glyph unicode="K" horiz-adv-x="1183" d="M215 0l10 723l-10 700h174v-1423h-174zM391 721l541 702h201l-553 -692v-12l606 -719h-219z" />
<glyph unicode="L" horiz-adv-x="913" d="M215 0v1423h172l-10 -1269l514 4v-158h-676z" />
<glyph unicode="M" horiz-adv-x="1626" d="M207 0l43 1423h254l303 -919h10l301 919h254l47 -1423h-172l-12 1290h-10l-314 -919h-194l-318 919h-12l-8 -1290h-172z" />
<glyph unicode="N" horiz-adv-x="1386" d="M215 0v1423h240l569 -1261h10l-30 1261h167v-1423h-239l-567 1262h-9l27 -1262h-168z" />
<glyph unicode="O" horiz-adv-x="1343" d="M147 715q0 432 156 592q76 78 164 110.5t204.5 32.5t205 -33t163.5 -110q156 -160 156 -592q0 -434 -156 -596q-76 -80 -164 -113t-204.5 -33t-204.5 33t-164 113q-156 162 -156 596zM332 739.5q0 -221.5 18.5 -336t64.5 -175t103 -79t170 -18.5t180 37q145 80 146 541 q0 465 -144 546q-68 39 -198.5 39t-198 -38.5t-104.5 -166.5t-37 -349.5z" />
<glyph unicode="P" horiz-adv-x="1189" d="M215 0l8 659l-8 762q252 29 453 29q401 0 401 -477q0 -500 -426 -500l-256 12v-485h-172zM387 643q145 -25 273 -25t167 39q60 62 60 325q0 257 -70 304q-47 33 -184 33t-246 -23v-653z" />
<glyph unicode="Q" horiz-adv-x="1357" d="M147 715q0 432 156 592q76 78 164 110.5t204.5 32.5t205 -33t163.5 -110q156 -160 156 -611.5t-209 -619.5v-13l281 -92l-68 -159l-350 184q-76 -23 -185.5 -23t-197.5 33t-164 113q-156 162 -156 596zM332 739.5q0 -221.5 18.5 -336t64.5 -175t103 -79t170 -18.5t180 37 q145 80 146 541q0 465 -144 546q-68 39 -198.5 39t-198 -38.5t-104.5 -166.5t-37 -349.5z" />
<glyph unicode="R" horiz-adv-x="1300" d="M215 0l10 674l-6 749q199 27 453 27q454 0 454 -440q0 -352 -303 -424v-8l322 -578h-205l-293 565l-258 10v-575h-174zM387 729q193 -20 322 -20t182 68.5t53 232.5q0 233 -80 280q-47 29 -175 29t-298 -23z" />
<glyph unicode="S" horiz-adv-x="1046" d="M74 104l61 140q80 -43 198 -78t205 -35t130 27q86 59 86 209q0 104 -62.5 165.5t-157 101.5t-126 53t-91 45t-85 59.5t-56.5 68.5q-57 76 -57 227.5t109.5 257t312.5 105.5q158 0 333 -45l-28 -148q-172 37 -300 37t-173 -26q-74 -41 -74 -176q0 -90 59 -158 q43 -47 150 -94q27 -12 97.5 -41t117.5 -55.5t100 -73.5q109 -94 109 -280.5t-119 -301.5t-309 -115q-100 0 -208 33t-165 66z" />
<glyph unicode="T" horiz-adv-x="970" d="M4 1268v155h963v-155l-400 6l4 -1274h-170l5 1274z" />
<glyph unicode="U" horiz-adv-x="1353" d="M215 618v805h172v-749q0 -250 24.5 -361.5t80 -147.5t159 -36t149.5 11.5t83 41t51 92.5q33 131 33 400v749h172v-786q0 -375 -113 -519.5t-349.5 -144.5t-349 142.5t-112.5 502.5z" />
<glyph unicode="V" horiz-adv-x="1081" d="M39 1423h182l307 -1286h13l305 1286h184l-385 -1423h-223z" />
<glyph unicode="W" horiz-adv-x="1531" d="M68 1423h176l149 -1271h10l236 927h233l236 -927h12l148 1271h176l-209 -1423h-234l-239 932h-10l-236 -932h-246z" />
<glyph unicode="X" horiz-adv-x="1097" d="M20 0l410 705l-399 718h200l295 -604h13l303 604h198l-397 -725l410 -698h-199l-309 582h-10l-316 -582h-199z" />
<glyph unicode="Y" horiz-adv-x="1046" d="M10 1423h193l305 -749h8l307 749h193l-420 -895l4 -528h-176l4 530z" />
<glyph unicode="Z" horiz-adv-x="1087" d="M59 0v156l742 1108v12l-701 -8v155h893v-159l-733 -1104v-10l741 6v-156h-942z" />
<glyph unicode="[" horiz-adv-x="636" d="M217 -254v1858h336v-140l-182 6v-1591l182 6v-139h-336z" />
<glyph unicode="\" horiz-adv-x="884" d="M45 1423h182l297 -770l348 -854h-180l-307 791z" />
<glyph unicode="]" horiz-adv-x="636" d="M84 -115l184 -6v1591l-184 -6v140h336v-1858h-336v139z" />
<glyph unicode="^" horiz-adv-x="1036" d="M119 666l299 757h200l300 -757l-152 -19l-240 643h-14l-240 -643z" />
<glyph unicode="_" horiz-adv-x="1097" d="M33 -186h1032v-144h-1032v144z" />
<glyph unicode="`" horiz-adv-x="1222" d="M348 1505l62 137l454 -194l-41 -102z" />
<glyph unicode="a" horiz-adv-x="1163" d="M111 365.5q0 193.5 121 280.5t350 87h217q0 240 -36 289t-132 49t-204 -25.5t-230 -76.5l-60 133q27 12 71 31.5t165 52.5t221 33q375 0 375 -435v-784h-111l-24 125h-13q-20 -16 -57 -42t-139.5 -68t-192.5 -42q-145 0 -233 99.5t-88 293zM289 369.5q0 -138.5 40 -191.5 t120.5 -53t164.5 27.5t185 83.5v339q-88 15 -249 15h-4q-158 0 -202 -39q-55 -43 -55 -181.5z" />
<glyph unicode="b" horiz-adv-x="1179" d="M184 51v1491h170v-368q190 45 310 45q372 0 372 -600q0 -646 -411 -646q-84 0 -218.5 23.5t-222.5 54.5zM354 158q129 -35 250 -35t160 33q94 88 94 456.5t-65 421.5q-43 33 -125 33q-145 0 -314 -53v-856z" />
<glyph unicode="c" horiz-adv-x="1060" d="M143 609.5q0 330.5 137.5 470t376.5 139.5q156 0 291 -33l-20 -144q-221 27 -303 27q-156 0 -209 -53q-41 -45 -67.5 -161t-26.5 -267q0 -344 131 -434q45 -33 119.5 -33t161.5 23.5t190 70.5l53 -133q-16 -12 -46 -30.5t-125 -48.5t-192 -30q-221 0 -346 153t-125 483.5 z" />
<glyph unicode="d" horiz-adv-x="1189" d="M143 573q0 645 424 646q109 0 269 -43v366h170v-1542h-113l-23 123h-12q-16 -16 -47 -41t-120 -67t-171 -42q-174 0 -275.5 150.5t-101.5 449.5zM414 152q27 -25 103.5 -25t153.5 26.5t165 79.5v779q-131 55 -265.5 55t-175.5 -49q-74 -95 -74 -441q0 -354 93 -425z" />
<glyph unicode="e" horiz-adv-x="1165" d="M143 596q0 623 471 623q209 0 313.5 -130.5t104.5 -431.5v-127h-708q0 -276 88 -358q55 -49 151 -49q172 0 338 57l55 21l43 -140q-172 -88 -381 -88q-475 0 -475 623zM324 666l534 10q0 256 -47 334q-41 61 -200.5 61t-223 -84t-63.5 -321z" />
<glyph unicode="f" horiz-adv-x="692" d="M102 991v105l134 26q8 246 98 346.5t254 100.5l114 -4l-12 -144q-104 4 -151 4t-76 -16q-57 -37 -57 -287h260v-137h-260v-985h-170v991h-134z" />
<glyph unicode="g" horiz-adv-x="1067" d="M96 782q0 233 130 335t341 102q125 0 432 -25v-109l-135 -20q70 -154 70 -277q0 -180 -116 -291.5t-316 -111.5q-20 -121 -20.5 -128t43.5 -25.5t57 -22.5q61 -27 84 -37q166 -70 230.5 -137.5t64.5 -140.5q0 -123 -121 -192t-322 -69q-98 0 -196.5 13.5t-196.5 42.5 l20 153q295 -51 437.5 -51t183.5 17.5t41 60.5t-47 76q-66 45 -263.5 126t-197.5 91l96 235q-139 33 -219 137.5t-80 247.5zM262 800.5q0 -153.5 56.5 -208.5t196.5 -55t197.5 54t57.5 202q0 143 -16.5 199.5t-24.5 60.5q-12 10 -194 14q-150 0 -211.5 -56.5t-61.5 -210z " />
<glyph unicode="h" horiz-adv-x="1196" d="M174 0v1542h170v-424q231 100 361 101q174 0 242.5 -103.5t68.5 -322.5v-793h-170v733q0 223 -41 283q-31 43 -109 43q-147 0 -301 -64l-51 -22v-973h-170z" />
<glyph unicode="i" d="M199 1368v174h209v-174h-209zM217 0v1192h170v-1192h-170z" />
<glyph unicode="j" horiz-adv-x="628" d="M-35 -354l19 151q57 -8 120.5 -8t88.5 18q49 33 49 299v1086h170v-1079q0 -477 -324 -478zM223 1368v174h209v-174h-209z" />
<glyph unicode="k" horiz-adv-x="1069" d="M184 0l11 657l-11 885h170v-1542h-170zM356 643l475 549h220l-506 -539v-10l542 -643h-221z" />
<glyph unicode="l" horiz-adv-x="538" d="M184 0v1542h170v-1542h-170z" />
<glyph unicode="m" horiz-adv-x="1878" d="M207 0v1192h115l18 -117h10q240 143 406 144q88 0 151.5 -41t91.5 -113q78 47 127.5 73.5t132 53.5t156.5 27q158 0 220.5 -110t62.5 -325v-784h-170v727q0 236 -30 283t-116 47q-147 0 -352 -117q8 -90 8 -147v-793h-170v733q0 131 -6 188.5t-31.5 96.5t-105.5 39 q-135 0 -348 -107v-950h-170z" />
<glyph unicode="n" horiz-adv-x="1230" d="M207 0v1192h115l18 -117h10q246 143 426 144q162 0 223 -125q51 -104 52 -301v-793h-172v733q0 233 -30 278.5t-112 45.5q-156 0 -360 -109v-948h-170z" />
<glyph unicode="o" horiz-adv-x="1179" d="M143 595q0 306 101.5 465t344 159t345 -159t102.5 -464t-102.5 -464t-345 -159t-344 158t-101.5 464zM315 596q0 -203 27 -305.5t82 -137t165.5 -34.5t165 34.5t81 137t26.5 305.5t-26.5 304t-81 136t-165 35t-164.5 -35t-82 -136t-28 -304z" />
<glyph unicode="p" horiz-adv-x="1181" d="M174 -340v1532h115l22 -121h11q4 2 45 30.5t78.5 51.5t103 44.5t129.5 21.5q172 0 266 -147.5t94 -453.5q0 -645 -432 -645q-94 0 -262 29v-342h-170zM344 166q174 -43 276.5 -43t141.5 33q96 80 96 495q0 319 -59 379q-35 35 -111 35t-161 -27.5t-183 -83.5v-788z" />
<glyph unicode="q" horiz-adv-x="1181" d="M143 618q0 330 105.5 465.5t326.5 135.5q86 0 191.5 -17.5t230.5 -52.5v-1489h-170v381q-152 -68 -295 -68q-389 0 -389 645zM322 598q0 -350 81 -436q37 -37 109 -37q139 0 270 49l45 16v846q-119 33 -260 33t-178 -43q-68 -77 -68 -423q0 -2 1 -5z" />
<glyph unicode="r" horiz-adv-x="808" d="M207 0v1192h108l23 -121h12q84 61 178.5 104.5t155.5 43.5l84 -11l-14 -164q-48 4 -102 4q-1 0 -1 1q-54 0 -139 -33q-86 -33 -135 -72v-944h-170z" />
<glyph unicode="s" horiz-adv-x="1007" d="M113 72l43 145q186 -96 376 -96q92 0 132 33q59 51 59 159q0 135 -125 191q-49 23 -137 48.5t-120 35.5t-84 37.5t-77 58.5q-65 81 -65 207q0 328 389 328q180 0 327 -50l-26 -143q-162 45 -305.5 45t-184.5 -30.5t-41 -118.5q0 -78 30 -108t46.5 -44t55 -29.5 t57.5 -21.5q76 -23 137 -39q137 -39 213 -110.5t76 -232.5t-101.5 -262.5t-285.5 -101.5q-90 0 -187.5 25t-201.5 74z" />
<glyph unicode="t" horiz-adv-x="745" d="M92 989v107l141 28l46 279h118v-281h238v-137h-238v-618q0 -172 17.5 -207t107.5 -35l111 4v-137q-43 -10 -115 -10q-147 0 -219 80.5t-72 316.5v610h-135z" />
<glyph unicode="u" horiz-adv-x="1228" d="M180 399v793h170v-733q0 -236 28 -282t133 -46t341 109v952h170v-1192h-115l-20 115h-10q-2 0 -62.5 -34t-99.5 -52q-125 -55 -236 -56q-299 0 -299 426z" />
<glyph unicode="v" horiz-adv-x="970" d="M29 1192h184l262 -1053h12l269 1053h184l-354 -1192h-211z" />
<glyph unicode="w" horiz-adv-x="1488" d="M43 1192h172l186 -1094h11l202 936h252l201 -936h12l185 1094h174l-240 -1192h-252l-201 938h-12l-201 -938h-249z" />
<glyph unicode="x" horiz-adv-x="1005" d="M35 0l356 621l-352 571h192l261 -477h12l252 477h192l-352 -576l358 -616h-198l-260 514h-11l-254 -514h-196z" />
<glyph unicode="y" horiz-adv-x="980" d="M6 1192h201l280 -875h11l278 875h185l-414 -1116l-111 -416h-180l162 457z" />
<glyph unicode="z" horiz-adv-x="964" d="M70 0v137l612 912v12l-586 -10v141h783v-137l-611 -912v-12l623 10v-141h-821z" />
<glyph unicode="{" horiz-adv-x="854" d="M115 618v152q152 23 198.5 66t46.5 174v202q0 393 316 394l108 -7l-8 -133q-82 6 -123 7q-70 0 -96.5 -49.5t-26.5 -215.5v-200q0 -92 -23.5 -158t-60.5 -96q-66 -51 -106 -56h-2v-12q41 -4 104 -55q39 -29 63.5 -96.5t24.5 -161.5v-215q0 -172 29 -225.5t98 -53.5l119 6 l8 -135q-66 -4 -102 -4q-322 0 -322 412v223q0 133 -45 173t-200 64z" />
<glyph unicode="|" horiz-adv-x="573" d="M211 -166v1708h151v-1708h-151z" />
<glyph unicode="}" horiz-adv-x="854" d="M70 -250l8 135q82 -6 119 -6q70 0 98.5 53.5t28.5 225.5v215q0 94 24.5 161.5t61.5 96.5q66 51 106 55v12h-2q-41 4 -106 56q-37 31 -60.5 96t-23.5 158v198q0 166 -27 216.5t-96 50.5l-123 -7l-8 133q63 6 108 7q315 0 316 -396v-200q0 -131 47 -174t198 -66v-152 q-156 -25 -200.5 -64.5t-44.5 -172.5v-223q0 -412 -322 -412z" />
<glyph unicode="~" horiz-adv-x="1073" d="M55 592q143 152 242 151q76 0 256 -74.5t239.5 -74.5t157.5 59l54 -84q-97 -129 -226 -129q-45 0 -236.5 76t-255 76t-169.5 -86z" />
<glyph unicode="&#xa1;" horiz-adv-x="548" d="M164 1010v182h221v-182h-221zM182 -229l29 1034h133l29 -1034h-191z" />
<glyph unicode="&#xa2;" horiz-adv-x="1060" d="M143 600q0 555 408 612v209h149v-202q137 -6 248 -33l-20 -144q-221 27 -303 27q-156 0 -209 -53q-41 -45 -67.5 -161t-26.5 -267q0 -344 131 -434q45 -33 119.5 -33t161.5 23.5t190 70.5l53 -133q-109 -82 -277 -102v-222h-149v219q-193 18 -300.5 172t-107.5 451z" />
<glyph unicode="&#xa3;" horiz-adv-x="1140" d="M147 0v152h181v557h-181v133h181q4 336 125.5 472t330.5 136q131 0 246 -33l-18 -143q-170 27 -250 26q-135 0 -180 -53q-76 -92 -82 -405h368v-133h-368v-555l499 4v-158h-852z" />
<glyph unicode="&#xa4;" horiz-adv-x="1329" d="M154 322l116 116q-82 121 -82 280t86 283l-114 117l112 115l119 -119q133 86 281.5 86t275.5 -82l119 117l115 -113l-117 -114q92 -125 92 -288t-86 -288l117 -117l-115 -110l-117 112q-133 -86 -285.5 -86t-289.5 93l-117 -117zM352 716q0 -171 86 -252t245 -81 t234.5 78t75.5 252t-85 255t-234.5 81t-235.5 -81t-86 -252z" />
<glyph unicode="&#xa5;" horiz-adv-x="1114" d="M51 1423h193l305 -735h12l303 735h193l-352 -737l307 2v-135h-916v135l305 -2zM96 299v135h916v-135h-375v-299h-170v299h-371z" />
<glyph unicode="&#xa6;" horiz-adv-x="573" d="M211 -166v717h151v-717h-151zM211 825v717h151v-717h-151z" />
<glyph unicode="&#xa7;" horiz-adv-x="1067" d="M121 672q0 143 127 243q-86 80 -86 221.5t86 227.5t262 86t324 -47l-27 -143q-147 45 -320 45q-90 0 -127.5 -32t-37.5 -116t65.5 -133t160.5 -76.5t189 -59.5t160 -99t66 -171q0 -139 -140 -270q76 -76 76 -214t-101.5 -231t-267.5 -93q-102 0 -204.5 24.5t-153.5 48.5 l-49 25l43 145q193 -96 369 -96q104 0 145 31q59 41 59 155q0 76 -63.5 121t-154.5 69.5t-182 54.5t-154.5 100.5t-63.5 183.5zM281 668q0 -57 43 -96.5t96 -55.5t142 -41.5t140 -48.5q104 104 104.5 173t-62 105.5t-191.5 72.5t-188 63q-84 -74 -84 -172z" />
<glyph unicode="&#xa8;" horiz-adv-x="1136" d="M276 1401v168h203v-168h-203zM659 1401v168h201v-168h-201z" />
<glyph unicode="&#xa9;" horiz-adv-x="1712" d="M147 657.5q0 311.5 204 514t509 202.5t505 -201.5t200 -513t-200 -513t-511 -201.5t-509 200.5t-198 512zM295 657.5q0 -264.5 148.5 -417t411.5 -152.5t412.5 153.5t149.5 418t-149.5 418t-407.5 153.5t-411.5 -154.5t-153.5 -419zM508 647q0 272 104 369 q92 84 235.5 84t211.5 -25l-10 -133q-115 16 -206 16t-116 -30q-57 -66 -57 -277t63 -266q27 -27 84 -27q113 0 211 41l33 15l37 -125q-106 -76 -259 -76t-242 105.5t-89 328.5z" />
<glyph unicode="&#xaa;" horiz-adv-x="868" d="M102 864q0 254 324 254h143q0 121 -23.5 157t-94.5 36q-133 0 -252 -54l-41 -18l-37 119q174 80 317.5 80t207 -74t63.5 -223v-531h-95l-20 78h-8q-135 -96 -250 -96q-233 0 -234 272zM248 857q0 -77 27.5 -106.5t76.5 -29.5q86 0 185 53l32 17v198q-55 6 -154.5 6 t-125.5 -26q-41 -35 -41 -112z" />
<glyph unicode="&#xab;" horiz-adv-x="942" d="M82 676l289 495l127 -77l-250 -410v-14l250 -410l-127 -80zM449 676l288 495l125 -77l-248 -410v-14l248 -410l-125 -80z" />
<glyph unicode="&#xac;" horiz-adv-x="1202" d="M57 526v150h1055v-436h-149v286h-906z" />
<glyph unicode="&#xad;" horiz-adv-x="796" d="M164 528v146h469v-146h-469z" />
<glyph unicode="&#xae;" horiz-adv-x="1712" d="M147 657.5q0 311.5 204 514t509 202.5t505 -201.5t200 -513t-200 -513t-511 -201.5t-509 200.5t-198 512zM295 657.5q0 -264.5 148.5 -417t411.5 -152.5t412.5 153.5t149.5 418t-149.5 418t-407.5 153.5t-411.5 -154.5t-153.5 -419zM575 242l7 395l-4 436q156 16 294 17 q283 0 283 -267q0 -111 -48 -176t-114 -82v-6l164 -317h-166l-145 305l-123 2v-307h-148zM721 686q66 -8 146.5 -8t107 33.5t26.5 111.5t-25.5 108t-101.5 30l-149 -11z" />
<glyph unicode="&#xaf;" horiz-adv-x="1155" d="M297 1419v123h573v-123h-573z" />
<glyph unicode="&#xb0;" horiz-adv-x="710" d="M47 1141.5q0 156.5 90 231.5t219 75t218.5 -75t89.5 -231.5t-90.5 -232t-218.5 -75.5t-218 75.5t-90 232zM193 1141q0 -170 162.5 -170t162.5 170t-162.5 170t-162.5 -170z" />
<glyph unicode="&#xb1;" horiz-adv-x="1144" d="M106 35v147h932v-147h-932zM106 670v143h390v350h151v-350h391v-143h-391v-353h-151v353h-390z" />
<glyph unicode="&#xb2;" horiz-adv-x="757" d="M102 1348q37 30 113 61t168 31t159.5 -54.5t67.5 -157t-131 -276.5l-184 -221v-8l330 8v-121h-512v105q272 293 338 424q29 55 28 94q0 84 -86 84q-113 0 -237 -76z" />
<glyph unicode="&#xb3;" horiz-adv-x="727" d="M86 664l39 106q115 -57 202 -57t113.5 30.5t26.5 105.5t-37 105.5t-115 30.5h-102v111q164 12 197.5 33.5t33.5 81t-24 83.5q-33 27 -106.5 27t-172.5 -12l-10 112q96 18 188 19q260 0 261 -209q0 -68 -30 -111t-55.5 -53t-48.5 -12v-8q61 -8 109.5 -55.5t48.5 -151.5 q0 -246 -258 -246q-66 0 -130 17.5t-130 52.5z" />
<glyph unicode="&#xb4;" horiz-adv-x="1224" d="M358 1448l455 194l64 -137l-478 -159z" />
<glyph unicode="&#xb5;" horiz-adv-x="1230" d="M180 -340v1532h172v-731q0 -229 27 -279q33 -51 144.5 -51t328.5 109v952h172v-1192h-115l-20 115h-12q-240 -141 -377 -142q-90 0 -156 37l-8 -6l16 -344h-172z" />
<glyph unicode="&#xb6;" horiz-adv-x="1347" d="M100 911.5q0 280.5 112 396t331 115.5h604v-1738h-172v1587h-260v-1587h-172v712q-217 0 -330 117t-113 397.5z" />
<glyph unicode="&#xb7;" horiz-adv-x="614" d="M199 678q-1 115 116 115q47 0 81 -27t34 -87.5t-34 -89t-82 -28.5t-81.5 28.5t-33.5 88.5z" />
<glyph unicode="&#xb8;" horiz-adv-x="1040" d="M408 -221q90 -10 143 -10t75.5 12t22.5 67.5t-28 163.5l120 8q39 -100 39 -188t-62.5 -143.5t-160.5 -55.5q-57 0 -149 19v127z" />
<glyph unicode="&#xb9;" horiz-adv-x="759" d="M80 1247l250 191l147 -11v-698h180v-119h-526v119h207v574h-8l-176 -150z" />
<glyph unicode="&#xba;" horiz-adv-x="731" d="M47 1015q0 208 73 315.5t246 107.5t245.5 -107.5t72.5 -315.5t-72.5 -315.5t-245.5 -107.5t-246 107.5t-73 315.5zM190 1015q0 -181 38 -239.5t137.5 -58.5t138.5 58.5t39 239.5t-39 239.5t-139.5 58.5t-137.5 -58.5t-37 -239.5z" />
<glyph unicode="&#xbb;" horiz-adv-x="942" d="M80 260l250 410v14l-250 410l127 77l289 -495l-289 -496zM446 260l248 410v14l-248 410l125 77l289 -495l-289 -496z" />
<glyph unicode="&#xbc;" horiz-adv-x="1804" d="M80 1247l250 191l147 -11v-698h180v-119h-526v119h207v574h-8l-176 -150zM508 -18l381 800l319 719h152l-363 -782l-335 -737h-154zM1118 168v106l195 557l125 -14l-193 -530v-8l238 10l22 311h107v-311l76 2v-123h-76v-168h-133l4 168h-365z" />
<glyph unicode="&#xbd;" horiz-adv-x="1861" d="M80 1247l250 191l147 -11v-698h180v-119h-526v119h207v574h-8l-176 -150zM516 -18l381 800l320 719h151l-362 -782l-336 -737h-154zM1206 737q37 31 114 61.5t168 30.5t158.5 -54t67.5 -156.5t-131 -276.5l-184 -221v-8l330 8v-121h-512v104q272 293 339 424q27 55 27 95 q0 84 -86 84q-113 0 -237 -76z" />
<glyph unicode="&#xbe;" horiz-adv-x="1755" d="M86 664l39 106q115 -57 202 -57t113.5 30.5t26.5 105.5t-37 105.5t-115 30.5h-102v111q164 12 197.5 33.5t33.5 81t-24 83.5q-33 27 -106.5 27t-172.5 -12l-10 112q96 18 188 19q260 0 261 -209q0 -68 -30 -112t-56.5 -55t-47.5 -13v-9q158 -23 158 -202 q0 -246 -258 -246q-66 0 -130 17.5t-130 52.5zM467 -18l381 800l319 719h152l-363 -782l-335 -737h-154zM1069 168v106l195 557l125 -14l-193 -530v-8l238 10l22 311h107v-311l75 2v-123h-75v-168h-133l4 168h-365z" />
<glyph unicode="&#xbf;" horiz-adv-x="948" d="M61 117q0 111 45.5 193.5t109 134t126.5 96.5q154 113 154 260h145v-19q0 -166 -80 -258q-35 -43 -77 -78.5t-85 -67.5t-77 -67q-80 -84 -80 -209q0 -121 80 -176q39 -27 121.5 -26.5t195.5 35t182 75.5q50 -110 64 -139l-56 -33q-55 -33 -159.5 -64.5t-200.5 -31.5 q-180 0 -294 105.5t-114 269.5zM457 1010v182h221v-182h-221z" />
<glyph unicode="&#xc0;" horiz-adv-x="1054" d="M10 0l402 1423h215l401 -1423h-184l-99 381h-452l-100 -381h-183zM250 1632l53 146l463 -166l-41 -105zM324 524h389l-189 760h-12z" />
<glyph unicode="&#xc1;" horiz-adv-x="1054" d="M10 0l402 1423h215l401 -1423h-184l-99 381h-452l-100 -381h-183zM287 1612l461 168l57 -150l-481 -123zM324 524h389l-189 760h-12z" />
<glyph unicode="&#xc2;" horiz-adv-x="1054" d="M10 0l402 1423h215l401 -1423h-184l-99 381h-452l-100 -381h-183zM217 1579l248 195h104l248 -195l-57 -78l-236 125h-14l-236 -125zM324 524h389l-189 760h-12z" />
<glyph unicode="&#xc3;" horiz-adv-x="1054" d="M10 0l402 1423h215l401 -1423h-184l-99 381h-452l-100 -381h-183zM170 1548q0 207 139 207q63 0 228 -47t180 -47q25 0 53 88l109 -14q0 -111 -37 -159t-99.5 -48t-230.5 49t-180 49q-23 0 -56 -90zM324 524h389l-189 760h-12z" />
<glyph unicode="&#xc4;" horiz-adv-x="1054" d="M10 0l402 1423h215l401 -1423h-184l-99 381h-452l-100 -381h-183zM229 1561v168h203v-168h-203zM324 524h389l-189 760h-12zM612 1561v168h201v-168h-201z" />
<glyph unicode="&#xc5;" horiz-adv-x="1054" d="M10 0l402 1423h215l401 -1423h-184l-99 381h-452l-100 -381h-183zM324 524h389l-189 760h-12zM346 1648q0 89 49 129t123 40t123 -40t49 -129t-49 -129t-123 -40t-123 40t-49 129zM444 1648q0 -44 17.5 -59.5t56.5 -15.5t54.5 14.5t15.5 59.5t-15.5 60t-54.5 15 t-56.5 -15t-17.5 -59z" />
<glyph unicode="&#xc6;" horiz-adv-x="1566" d="M-6 0l612 1423h821v-155l-528 6l-8 -477h487v-146h-487l8 -501l528 4v-154h-698v375h-393l-160 -375h-182zM379 524h350v760h-37z" />
<glyph unicode="&#xc7;" horiz-adv-x="1193" d="M147 696q0 512 213 668q68 49 143 67.5t227.5 18.5t287.5 -33l-21 -147q-188 24 -309 24q-205 0 -250 -55q-104 -127 -104 -549q0 -201 38 -337t88 -185t150.5 -49t199.5 28.5t153 57.5l55 28l59 -135q-115 -82 -297 -112q27 -88 27 -148q0 -94 -62.5 -149.5 t-160.5 -55.5q-57 0 -150 19v127q90 -10 143.5 -10t76 12t22.5 69.5t-17 122.5h-20q-492 0 -492 723z" />
<glyph unicode="&#xc8;" horiz-adv-x="1052" d="M215 0v1423h698v-153l-526 6l-10 -479h487v-146h-487l10 -501l526 4v-154h-698zM295 1632l53 146l463 -166l-41 -105z" />
<glyph unicode="&#xc9;" horiz-adv-x="1052" d="M215 0v1423h698v-153l-526 6l-10 -479h487v-146h-487l10 -501l526 4v-154h-698zM367 1612l460 168l58 -150l-482 -123z" />
<glyph unicode="&#xca;" horiz-adv-x="1052" d="M215 0v1423h698v-153l-526 6l-10 -479h487v-146h-487l10 -501l526 4v-154h-698zM274 1579l248 195h105l247 -195l-57 -78l-235 125h-15l-235 -125z" />
<glyph unicode="&#xcb;" horiz-adv-x="1052" d="M215 0v1423h698v-153l-526 6l-10 -479h487v-146h-487l10 -501l526 4v-154h-698zM281 1561v168h202v-168h-202zM664 1561v168h200v-168h-200z" />
<glyph unicode="&#xcc;" d="M14 1628l54 150l438 -162l-41 -109zM215 -2l8 653l-8 772h174l-10 -628l10 -795z" />
<glyph unicode="&#xcd;" d="M109 1616l432 164l57 -154l-453 -119zM215 -2l8 653l-8 772h174l-10 -628l10 -795z" />
<glyph unicode="&#xce;" d="M16 1583l234 191h104l234 -191l-53 -82l-226 125h-14l-225 -125zM215 -2l8 653l-8 772h174l-10 -628l10 -795z" />
<glyph unicode="&#xcf;" d="M35 1561v168h203v-168h-203zM215 -2l8 653l-8 772h174l-10 -628l10 -795zM369 1561v168h200v-168h-200z" />
<glyph unicode="&#xd0;" horiz-adv-x="1316" d="M106 657v144h136v624q268 25 407 25t230.5 -39t145.5 -103.5t89 -160.5q55 -160 55 -418q0 -756 -526 -756q-70 0 -401 27v657h-136zM410 145q133 -20 211 -20q186 0 243 57q113 113 113 550t-109 528q-45 41 -198 40l-260 -14v-485h221v-144h-221v-512z" />
<glyph unicode="&#xd1;" horiz-adv-x="1386" d="M215 0v1423h240l569 -1261h10l-30 1261h167v-1423h-239l-567 1262h-9l27 -1262h-168zM352 1548q0 207 140 207q63 0 228 -47t177 -47q27 0 55 88l109 -14q0 -111 -37 -159t-99.5 -48t-230.5 49t-180 49q-23 0 -55 -90z" />
<glyph unicode="&#xd2;" horiz-adv-x="1343" d="M147 715q0 432 156 592q76 78 164 110.5t204.5 32.5t205 -33t163.5 -110q156 -160 156 -592q0 -434 -156 -596q-76 -80 -164 -113t-204.5 -33t-204.5 33t-164 113q-156 162 -156 596zM332 739.5q0 -221.5 18.5 -336t64.5 -175t103 -79t170 -18.5t180 37q145 80 146 541 q0 465 -144 546q-68 39 -198.5 39t-198 -38.5t-104.5 -166.5t-37 -349.5zM432 1632l53 146l463 -166l-41 -105z" />
<glyph unicode="&#xd3;" horiz-adv-x="1343" d="M147 715q0 432 156 592q76 78 164 110.5t204.5 32.5t205 -33t163.5 -110q156 -160 156 -592q0 -434 -156 -596q-76 -80 -164 -113t-204.5 -33t-204.5 33t-164 113q-156 162 -156 596zM332 739.5q0 -221.5 18.5 -336t64.5 -175t103 -79t170 -18.5t180 37q145 80 146 541 q0 465 -144 546q-68 39 -198.5 39t-198 -38.5t-104.5 -166.5t-37 -349.5zM506 1612l461 168l57 -150l-481 -123z" />
<glyph unicode="&#xd4;" horiz-adv-x="1343" d="M147 715q0 432 156 592q76 78 164 110.5t204.5 32.5t205 -33t163.5 -110q156 -160 156 -592q0 -434 -156 -596q-76 -80 -164 -113t-204.5 -33t-204.5 33t-164 113q-156 162 -156 596zM332 739.5q0 -221.5 18.5 -336t64.5 -175t103 -79t170 -18.5t180 37q145 80 146 541 q0 465 -144 546q-68 39 -198.5 39t-198 -38.5t-104.5 -166.5t-37 -349.5zM385 1579l248 195h104l248 -195l-57 -78l-236 125h-14l-236 -125z" />
<glyph unicode="&#xd5;" horiz-adv-x="1343" d="M147 715q0 432 156 592q76 78 164 110.5t204.5 32.5t205 -33t163.5 -110q156 -160 156 -592q0 -434 -156 -596q-76 -80 -164 -113t-204.5 -33t-204.5 33t-164 113q-156 162 -156 596zM322 1548q0 207 139 207q63 0 228 -47t179 -47q25 0 54 88l108 -14q0 -111 -37 -159 t-99.5 -48t-230 49t-180.5 49q-23 0 -55 -90zM332 739.5q0 -221.5 18.5 -336t64.5 -175t103 -79t170 -18.5t180 37q145 80 146 541q0 465 -144 546q-68 39 -198.5 39t-198 -38.5t-104.5 -166.5t-37 -349.5z" />
<glyph unicode="&#xd6;" horiz-adv-x="1343" d="M147 715q0 432 156 592q76 78 164 110.5t204.5 32.5t205 -33t163.5 -110q156 -160 156 -592q0 -434 -156 -596q-76 -80 -164 -113t-204.5 -33t-204.5 33t-164 113q-156 162 -156 596zM332 739.5q0 -221.5 18.5 -336t64.5 -175t103 -79t170 -18.5t180 37q145 80 146 541 q0 465 -144 546q-68 39 -198.5 39t-198 -38.5t-104.5 -166.5t-37 -349.5zM389 1561v168h203v-168h-203zM772 1561v168h201v-168h-201z" />
<glyph unicode="&#xd7;" horiz-adv-x="1177" d="M111 238l372 372l-368 369l102 104l369 -370l375 374l106 -108l-373 -373l369 -368l-102 -105l-371 369l-373 -373z" />
<glyph unicode="&#xd8;" horiz-adv-x="1343" d="M147 715q0 432 156 592q76 78 164 110.5t220 32.5t237 -53l43 96h161l-88 -186q156 -176 156 -592q0 -434 -156 -596q-75 -80 -163.5 -113t-213 -33t-225.5 43l-43 -96h-164l88 180q-172 172 -172 615zM332 672q0 -289 63 -414l232 477l235 525q-68 35 -194.5 34.5 t-194 -39t-104.5 -166.5t-37 -417zM502 156q63 -25 181 -25t185 37q145 80 146 541q0 305 -53 432l-224 -469z" />
<glyph unicode="&#xd9;" horiz-adv-x="1353" d="M215 618v805h172v-749q0 -250 24.5 -361.5t80 -147.5t159 -36t149.5 11.5t83 41t51 92.5q33 131 33 400v749h172v-786q0 -375 -113 -519.5t-349.5 -144.5t-349 142.5t-112.5 502.5zM348 1632l53 146l463 -166l-41 -105z" />
<glyph unicode="&#xda;" horiz-adv-x="1353" d="M215 618v805h172v-749q0 -250 24.5 -361.5t80 -147.5t159 -36t148.5 10q111 29 135 135q33 131 33 400v749h172v-786q0 -375 -113 -519.5t-349.5 -144.5t-349 142.5t-112.5 502.5zM498 1612l460 168l58 -150l-481 -123z" />
<glyph unicode="&#xdb;" horiz-adv-x="1353" d="M215 618v805h172v-749q0 -250 24.5 -361.5t80 -147.5t159 -36t148.5 10q111 29 135 135q33 131 33 400v749h172v-786q0 -375 -113 -519.5t-349.5 -144.5t-349 142.5t-112.5 502.5zM379 1579l248 195h104l248 -195l-57 -78l-236 125h-14l-236 -125z" />
<glyph unicode="&#xdc;" horiz-adv-x="1353" d="M215 618v805h172v-749q0 -250 24.5 -361.5t80 -147.5t159 -36t149.5 11.5t83 41t51 92.5q33 131 33 400v749h172v-786q0 -375 -113 -519.5t-349.5 -144.5t-349 142.5t-112.5 502.5zM385 1554v168h203v-168h-203zM768 1554v168h201v-168h-201z" />
<glyph unicode="&#xdd;" horiz-adv-x="1046" d="M10 1423h193l305 -749h8l307 749h193l-420 -895l4 -528h-176l4 530zM342 1612l461 168l57 -150l-481 -123z" />
<glyph unicode="&#xde;" horiz-adv-x="1218" d="M211 0l6 666l-6 757h172l-2 -186q215 14 309 14q193 0 296.5 -119.5t103.5 -355.5q0 -287 -144 -399q-123 -96 -305 -96l-260 12l2 -293h-172zM379 451q152 -25 288 -25t177 39q63 61 63 319t-73 303q-55 33 -191.5 33t-263.5 -22v-647z" />
<glyph unicode="&#xdf;" horiz-adv-x="1259" d="M215 0v1004q0 221 113.5 333.5t285.5 112.5t289 -97.5t117 -267.5q0 -76 -24.5 -139t-59.5 -98q-72 -76 -115 -76q94 -12 178 -82q47 -39 76 -114.5t29 -176.5q0 -195 -106.5 -310.5t-301.5 -115.5q-74 0 -170 21l21 129q66 -14 139 -14q125 0 181.5 63.5t56.5 218 t-62.5 229t-224.5 74.5h-53v121q137 14 198.5 73.5t61.5 186.5q0 246 -226 246q-129 0 -180 -74.5t-51 -240.5v-1006h-172z" />
<glyph unicode="&#xe0;" horiz-adv-x="1163" d="M111 365.5q0 193.5 121 280.5t350 87h217q0 240 -36 289t-132 49t-204 -25.5t-230 -76.5l-60 133q27 12 71 31.5t165 52.5t221 33q375 0 375 -435v-784h-111l-24 125h-13q-20 -16 -57 -42t-139.5 -68t-192.5 -42q-145 0 -233 99.5t-88 293zM289 369.5q0 -138.5 40 -191.5 t120.5 -53t164.5 27.5t185 83.5v339q-88 14 -249 14.5t-206 -38.5q-55 -43 -55 -181.5zM309 1505l62 137l454 -194l-41 -102z" />
<glyph unicode="&#xe1;" horiz-adv-x="1163" d="M111 365.5q0 193.5 120.5 280.5t350.5 87h217q0 240 -36 289t-134 49q-211 0 -432 -102l-60 133l64 28q63 29 178 59t215 30q375 0 375 -435v-784h-111l-24 125h-13l-51 -39q-53 -37 -150.5 -75t-187.5 -38q-145 0 -233 99.5t-88 293zM289 369.5q0 -138.5 40 -191.5 t132 -53q156 0 338 111v339q-119 14 -219 15q-190 0 -236 -39q-55 -43 -55 -181.5zM305 1448l455 194l63 -137l-477 -159z" />
<glyph unicode="&#xe2;" horiz-adv-x="1163" d="M111 365.5q0 193.5 120.5 280.5t350.5 87h217q0 240 -36 289t-134 49q-211 0 -432 -102l-60 133l64 28q63 29 178 59t215 30q375 0 375 -435v-784h-111l-24 125h-13l-51 -39q-53 -37 -150.5 -75t-187.5 -38q-145 0 -233 99.5t-88 293zM256 1419l248 223h104l248 -223 l-59 -69l-234 145h-14l-234 -145zM289 369.5q0 -138.5 40 -191.5t132 -53q156 0 338 111v339q-119 14 -219 15q-190 0 -236 -39q-55 -43 -55 -181.5z" />
<glyph unicode="&#xe3;" horiz-adv-x="1163" d="M111 365.5q0 193.5 120.5 280.5t350.5 87h217q0 240 -36 289t-134 49q-211 0 -432 -102l-60 133l64 28q63 29 178 59t215 30q375 0 375 -435v-784h-111l-24 125h-13l-51 -39q-53 -37 -150.5 -75t-187.5 -38q-145 0 -233 99.5t-88 293zM174 1382q0 207 139 207 q63 0 228.5 -49t179.5 -49q25 0 53 92l109 -14q0 -111 -37 -159t-99.5 -48t-230.5 51t-180 51q-23 0 -55 -94zM289 369.5q0 -138.5 40 -191.5t132 -53q156 0 338 111v339q-119 14 -219 15q-190 0 -236 -39q-55 -43 -55 -181.5z" />
<glyph unicode="&#xe4;" horiz-adv-x="1163" d="M111 365.5q0 193.5 121 280.5t350 87h217q0 240 -36 289t-132 49t-204 -25.5t-230 -76.5l-60 133q27 12 71 31.5t165 52.5t221 33q375 0 375 -435v-784h-111l-24 125h-13q-20 -16 -57 -42t-139.5 -68t-192.5 -42q-145 0 -233 99.5t-88 293zM258 1401v168h203v-168h-203z M289 369.5q0 -138.5 40 -191.5t120.5 -53t164.5 27.5t185 83.5v339q-88 14 -249 14.5t-206 -38.5q-55 -43 -55 -181.5zM641 1401v168h201v-168h-201z" />
<glyph unicode="&#xe5;" horiz-adv-x="1163" d="M111 365.5q0 193.5 121 280.5t350 87h217q0 240 -36 289t-132 49t-204 -25.5t-230 -76.5l-60 133q27 12 71 31.5t165 52.5t221 33q375 0 375 -435v-784h-111l-24 125h-13q-20 -16 -57 -42t-139.5 -68t-192.5 -42q-145 0 -233 99.5t-88 293zM289 369.5q0 -138.5 40 -191.5 t120.5 -53t164.5 27.5t185 83.5v339q-88 14 -249 14.5t-206 -38.5q-55 -43 -55 -181.5zM385 1496q0 91 49 131t123 40t123 -40t49 -131t-49 -131t-123 -40t-123 40t-49 131zM483 1496q0 -46 17.5 -61.5t56.5 -15.5t54.5 15.5t15.5 61.5t-15.5 61.5t-54.5 15.5t-56.5 -15.5 t-17.5 -61.5z" />
<glyph unicode="&#xe6;" horiz-adv-x="1808" d="M111 350q0 350 471 350h217q0 264 -36 317.5t-132 53.5t-204 -25.5t-230 -76.5l-60 133q244 117 434 117q248 0 336 -156h8q115 156 334 156t322.5 -127t103.5 -418v-121h-702v-74q8 -225 86 -307q55 -49 182 -49q133 0 303 57l55 21l43 -140q-167 -88 -382 -88 q-256 0 -365 166h-10q-27 -18 -71 -45.5t-160.5 -74t-213.5 -46.5q-154 0 -241.5 94.5t-87.5 282.5zM289 350q0 -131 41 -178t121 -47q143 0 297 76l51 26v316q-84 14 -247 14t-208 -39q-55 -37 -55 -168zM971 688l530 10q0 240 -47 318q-37 55 -195.5 55t-223 -80 t-64.5 -303z" />
<glyph unicode="&#xe7;" horiz-adv-x="1060" d="M143 609.5q0 330.5 137.5 470t376.5 139.5q156 0 291 -33l-20 -144q-221 27 -303 27q-156 0 -209 -53q-41 -45 -67.5 -161t-26.5 -267q0 -344 131 -434q45 -33 119.5 -33t161.5 23.5t190 70.5l53 -133q-86 -63 -225 -92q29 -82 28.5 -164t-63 -137.5t-160.5 -55.5 q-57 0 -149 19v127q90 -10 143 -10t75.5 12t22.5 69.5t-16 122.5h-19q-221 0 -346 153t-125 483.5z" />
<glyph unicode="&#xe8;" horiz-adv-x="1165" d="M143 596q0 623 471 623q209 0 313.5 -130.5t104.5 -431.5v-127h-708q0 -276 88 -358q55 -49 151 -49q172 0 338 57l55 21l43 -140q-172 -88 -381 -88q-475 0 -475 623zM322 1505l61 137l455 -194l-41 -102zM324 666l534 10q0 256 -47 334q-41 61 -200.5 61t-223 -84 t-63.5 -321z" />
<glyph unicode="&#xe9;" horiz-adv-x="1165" d="M143 596q0 623 471 623q209 0 313.5 -130.5t104.5 -431.5v-127h-708q0 -276 88 -358q55 -49 170 -49q174 0 374 78l43 -140q-98 -45 -193.5 -66.5t-187.5 -21.5q-475 0 -475 623zM324 666l534 10q0 256 -47 334q-41 61 -200.5 61t-223 -83.5t-63.5 -321.5zM442 1448 l455 194l64 -137l-478 -159z" />
<glyph unicode="&#xea;" horiz-adv-x="1165" d="M143 596q0 623 471 623q209 0 313.5 -130.5t104.5 -431.5v-127h-708q0 -276 88 -358q55 -49 170 -49q174 0 374 78l43 -140q-98 -45 -193.5 -66.5t-187.5 -21.5q-475 0 -475 623zM283 1419l247 223h105l248 -223l-60 -69l-233 145h-15l-233 -145zM324 666l534 10 q0 256 -47 334q-41 61 -200.5 61t-223 -83.5t-63.5 -321.5z" />
<glyph unicode="&#xeb;" horiz-adv-x="1165" d="M143 596q0 623 471 623q209 0 313.5 -130.5t104.5 -431.5v-127h-708q0 -276 88 -358q55 -49 151 -49q172 0 338 57l55 21l43 -140q-172 -88 -381 -88q-475 0 -475 623zM297 1401v168h203v-168h-203zM324 666l534 10q0 256 -47 334q-41 61 -200.5 61t-223 -84t-63.5 -321z M680 1401v168h201v-168h-201z" />
<glyph unicode="&#xec;" d="M-63 1503l57 139l446 -194l-41 -102zM217 0v1192h170v-1192h-170z" />
<glyph unicode="&#xed;" d="M115 1448l448 194l55 -139l-462 -157zM217 0v1192h170v-1192h-170z" />
<glyph unicode="&#xee;" d="M14 1419l234 223h108l234 -223l-66 -67l-213 143h-16l-213 -143zM217 0v1192h170v-1192h-170z" />
<glyph unicode="&#xef;" d="M14 1401v168h203v-168h-203zM217 0v1192h170v-1192h-170zM389 1401v168h201v-168h-201z" />
<glyph unicode="&#xf0;" horiz-adv-x="1179" d="M143 565q0 500 443 500q156 0 264 -84l10 6q-47 150 -186 277l-195 -125l-16 143l110 66q-57 41 -143 98l76 123q113 -59 201 -127l221 145l14 -145l-141 -86q235 -240 235 -770q0 -301 -102.5 -457t-345 -156t-344 150.5t-101.5 441.5zM315 574.5q0 -201.5 28 -296 t82 -127t164.5 -32.5t165 32.5t81 127t26.5 296t-59.5 272.5t-214 71t-214 -71t-59.5 -272.5z" />
<glyph unicode="&#xf1;" horiz-adv-x="1230" d="M207 0v1192h115l18 -117h10q246 143 426 144q82 0 137 -31q137 -80 138 -395v-793h-172v733q0 233 -30 278.5t-112 45.5q-156 0 -360 -109v-948h-170zM266 1382q0 207 140 207q63 0 228 -49t177 -49q27 0 55 92l109 -14q0 -111 -37 -159t-99.5 -48t-230.5 51t-180 51 q-23 0 -55 -94z" />
<glyph unicode="&#xf2;" horiz-adv-x="1179" d="M143 595q0 306 101.5 465t344 159t345 -159t102.5 -464t-102.5 -464t-345 -159t-344 158t-101.5 464zM309 1505l62 137l454 -194l-41 -102zM315 596q0 -203 27 -305.5t82 -137t165.5 -34.5t165 34.5t81 137t26.5 305.5t-26.5 304t-81 136t-165 35t-164.5 -35t-82 -136 t-28 -304z" />
<glyph unicode="&#xf3;" horiz-adv-x="1179" d="M143 595q0 306 101.5 465t344 159t345 -159t102.5 -464t-102.5 -464t-345 -159t-344 158t-101.5 464zM315 596q0 -203 27 -305.5t82 -137t165.5 -34.5t165 34.5t81 137t26.5 305.5t-26.5 304t-81 136t-165 35t-164.5 -35t-82 -136t-28 -304zM414 1448l454 194l64 -137 l-477 -159z" />
<glyph unicode="&#xf4;" horiz-adv-x="1179" d="M143 595q0 306 101.5 465t344 159t345 -159t102.5 -464t-102.5 -464t-345 -159t-344 158t-101.5 464zM289 1419l248 223h104l248 -223l-60 -69l-233 145h-14l-234 -145zM315 596q0 -203 27 -305.5t82 -137t165.5 -34.5t165 34.5t81 137t26.5 305.5t-26.5 304t-81 136 t-165 35t-164.5 -35t-82 -136t-28 -304z" />
<glyph unicode="&#xf5;" horiz-adv-x="1179" d="M143 595q0 306 101.5 465t344 159t345 -159t102.5 -464t-102.5 -464t-345 -159t-344 158t-101.5 464zM236 1382q0 207 139 207q63 0 228 -49t179 -49q25 0 54 92l108 -14q0 -111 -37 -159t-99.5 -48t-230 51t-180.5 51q-23 0 -55 -94zM315 596q0 -203 27 -305.5t82 -137 t165.5 -34.5t165 34.5t81 137t26.5 305.5t-26.5 304t-81 136t-165 35t-164.5 -35t-82 -136t-28 -304z" />
<glyph unicode="&#xf6;" horiz-adv-x="1179" d="M143 595q0 306 101.5 465t344 159t345 -159t102.5 -464t-102.5 -464t-345 -159t-344 158t-101.5 464zM299 1401v168h203v-168h-203zM315 596q0 -203 27 -305.5t82 -137t165.5 -34.5t165 34.5t81 137t26.5 305.5t-26.5 304t-81 136t-165 35t-164.5 -35t-82 -136t-28 -304z M682 1401v168h201v-168h-201z" />
<glyph unicode="&#xf7;" horiz-adv-x="1265" d="M106 526v146h1055v-146h-1055zM524 102v185h221v-185h-221zM524 911v185h221v-185h-221z" />
<glyph unicode="&#xf8;" horiz-adv-x="1185" d="M145 587q0 314 102.5 473t346.5 159q94 0 164 -25l41 90h155l-75 -158q162 -145 161 -530q0 -305 -102 -464t-344 -159q-139 0 -234 54l-47 -105h-155l96 201q-109 150 -109 464zM319 598q0 -201 23 -297l172 358l182 402q-37 10 -125 10t-143 -35t-82 -136t-27 -302z M422 158q51 -39 167 -39t170 34.5t80.5 137t26.5 348.5t-57 344l-184 -387z" />
<glyph unicode="&#xf9;" horiz-adv-x="1228" d="M180 399v793h170v-733q0 -236 28 -282t133 -46t341 109v952h170v-1192h-115l-20 115h-10q-2 0 -62.5 -34t-99.5 -52q-125 -55 -236 -56q-299 0 -299 426zM293 1505l61 137l455 -194l-41 -102z" />
<glyph unicode="&#xfa;" horiz-adv-x="1228" d="M180 399v793h170v-733q0 -236 28 -282t133 -46t341 109v952h170v-1192h-115l-20 115h-10q-2 0 -62 -33q-193 -109 -336 -109q-299 0 -299 426zM465 1448l455 194l63 -137l-477 -159z" />
<glyph unicode="&#xfb;" horiz-adv-x="1228" d="M180 399v793h170v-733q0 -236 28 -282t133 -46t341 109v952h170v-1192h-115l-20 115h-10q-2 0 -62 -33q-193 -109 -336 -109q-299 0 -299 426zM307 1419l248 223h104l248 -223l-59 -69l-234 145h-14l-233 -145z" />
<glyph unicode="&#xfc;" horiz-adv-x="1228" d="M180 399v793h170v-733q0 -236 28 -282t133 -46t341 109v952h170v-1192h-115l-20 115h-10q-2 0 -62.5 -34t-99.5 -52q-125 -55 -236 -56q-299 0 -299 426zM307 1401v168h203v-168h-203zM690 1401v168h201v-168h-201z" />
<glyph unicode="&#xfd;" horiz-adv-x="980" d="M6 1192h201l280 -875h11l278 875h185l-414 -1116l-111 -416h-180l162 457zM322 1448l454 194l64 -137l-478 -159z" />
<glyph unicode="&#xfe;" horiz-adv-x="1210" d="M215 -340v1882h170v-368q188 45 313 45q184 0 276.5 -148.5t92.5 -470.5q0 -627 -420 -627q-88 0 -262 33v-346h-170zM385 158q135 -35 253 -35t157 33q35 33 64.5 145.5t29.5 308.5q0 371 -66 424q-43 33 -125 33q-145 0 -313 -53v-856z" />
<glyph unicode="&#xff;" horiz-adv-x="980" d="M6 1192h201l280 -875h11l278 875h185l-414 -1116l-111 -416h-180l162 457zM199 1401v168h202v-168h-202zM582 1401v168h200v-168h-200z" />
<glyph unicode="&#x152;" horiz-adv-x="1861" d="M147 715q0 432 156 592q76 78 164 110.5t205 32.5q219 0 342 -135h8v108h700v-155l-528 6l-10 -477h489v-146h-489l10 -501l528 4v-154h-700v111h-8q-119 -137 -342 -138q-117 0 -205 33t-164 113q-156 162 -156 596zM332 739.5q0 -221.5 18.5 -336t64.5 -175t103 -79 t170 -18.5t180 37q145 80 146 541q0 465 -144 546q-68 39 -198.5 39t-198 -38.5t-104.5 -166.5t-37 -349.5z" />
<glyph unicode="&#x153;" horiz-adv-x="1875" d="M143 595q0 306 101.5 465t349.5 159t354 -191h8q113 190 373 191q205 0 309.5 -131.5t104.5 -430.5v-127h-705v-69q6 -219 88 -289q55 -49 181 -49q68 0 157.5 19.5t202.5 58.5l43 -140q-170 -88 -383 -88q-250 0 -364 191h-9q-104 -190 -356 -190.5t-353.5 157.5 t-101.5 464zM315 596q0 -203 27 -305.5t82 -137t165.5 -34.5t165 34.5t81 137t26.5 305.5t-26.5 304t-81 136t-165 35t-164.5 -35t-82 -136t-28 -304zM1038 666l531 10q0 256 -47 334q-35 61 -195 61t-224.5 -84t-64.5 -321z" />
<glyph unicode="&#x2c6;" horiz-adv-x="1026" d="M215 1419l248 223h104l248 -223l-59 -69l-234 145h-14l-234 -145z" />
<glyph unicode="&#x2dc;" horiz-adv-x="1097" d="M195 1382q0 207 139 207q63 0 228 -49t179 -49q25 0 54 92l108 -14q0 -111 -37 -159t-99 -48t-230 51t-181 51q-23 0 -55 -94z" />
<glyph unicode="&#x2000;" horiz-adv-x="908" />
<glyph unicode="&#x2001;" horiz-adv-x="1817" />
<glyph unicode="&#x2002;" horiz-adv-x="908" />
<glyph unicode="&#x2003;" horiz-adv-x="1817" />
<glyph unicode="&#x2004;" horiz-adv-x="605" />
<glyph unicode="&#x2005;" horiz-adv-x="454" />
<glyph unicode="&#x2006;" horiz-adv-x="302" />
<glyph unicode="&#x2007;" horiz-adv-x="302" />
<glyph unicode="&#x2008;" horiz-adv-x="227" />
<glyph unicode="&#x2009;" horiz-adv-x="363" />
<glyph unicode="&#x200a;" horiz-adv-x="100" />
<glyph unicode="&#x2010;" horiz-adv-x="657" d="M94 598v145h469v-145h-469z" />
<glyph unicode="&#x2011;" horiz-adv-x="657" d="M94 598v145h469v-145h-469z" />
<glyph unicode="&#x2012;" horiz-adv-x="657" d="M94 598v145h469v-145h-469z" />
<glyph unicode="&#x2013;" horiz-adv-x="1181" d="M102 598v145h977v-145h-977z" />
<glyph unicode="&#x2014;" horiz-adv-x="1640" d="M143 598v145h1354v-145h-1354z" />
<glyph unicode="&#x2018;" horiz-adv-x="462" d="M121 1122q2 242 141 369l80 -66q-63 -82 -63 -200l12 -240h-162q-8 68 -8 137z" />
<glyph unicode="&#x2019;" horiz-adv-x="462" d="M121 1020q66 80 65 201l-14 239h162q8 -68 8 -137q-2 -246 -141 -369z" />
<glyph unicode="&#x201a;" horiz-adv-x="540" d="M127 -168q63 82 63 201l-12 239h162q8 -68 8 -137q-2 -241 -141 -368z" />
<glyph unicode="&#x201c;" horiz-adv-x="749" d="M121 1122q2 242 141 369l80 -66q-63 -82 -63 -200l12 -240h-162q-8 68 -8 137zM408 1122q2 242 141 369l80 -66q-63 -82 -64 -200l13 -240h-162q-8 68 -8 137z" />
<glyph unicode="&#x201d;" horiz-adv-x="749" d="M121 1020q63 82 63 201l-12 239h162q8 -68 8 -137q-2 -242 -141 -369zM408 1020q63 82 63 201l-12 239h162q8 -68 8 -137q-3 -242 -142 -369z" />
<glyph unicode="&#x201e;" horiz-adv-x="827" d="M127 -170q63 82 63 201l-12 239h162q8 -68 8 -137q-2 -242 -141 -369zM414 -170q63 82 63 201l-12 239h162q8 -68 8 -137q-2 -242 -141 -369z" />
<glyph unicode="&#x2022;" horiz-adv-x="761" d="M143 904q0 124 69 181.5t169 57.5t168.5 -58.5t68.5 -181.5t-68.5 -181t-168.5 -58t-169 58t-69 182z" />
<glyph unicode="&#x202f;" horiz-adv-x="363" />
<glyph unicode="&#x2039;" horiz-adv-x="577" d="M82 676l289 495l127 -77l-250 -410v-14l250 -410l-127 -80z" />
<glyph unicode="&#x203a;" horiz-adv-x="577" d="M80 260l250 410v14l-250 410l127 77l289 -495l-289 -496z" />
<glyph unicode="&#x205f;" horiz-adv-x="454" />
<glyph unicode="&#x20ac;" horiz-adv-x="1216" d="M94 524v135h916v-135h-609q25 -260 119 -354q51 -51 151.5 -51t201 28.5t153.5 57.5l53 28l60 -135q-20 -14 -57.5 -34.5t-150 -55.5t-222.5 -35q-209 0 -336 129t-156 422h-123zM94 776v135h125q33 317 178 435q127 104 338 104t342 -33l-18 -147q-213 25 -361.5 24.5 t-197.5 -55.5q-76 -84 -99 -328h609v-135h-916z" />
<glyph unicode="&#x25fc;" horiz-adv-x="1187" d="M0 0v1188h1188v-1188h-1188z" />
</font>
</defs>
</svg>
